<?xml version="1.0" encoding="utf-8"?>
<svg xmlns="http://www.w3.org/2000/svg" width="1024" height="1024" viewBox="0 0 1024 1024">
  <g>
    <path d="M 300.464 914.743 C 255.645 890.775 215.915 857.02 182.96 814.38 C 175.57 804.82 167.485 792.488 159.871 779.387 C 152.258 766.287 145.115 752.42 139.61 739.79 C 136.895 733.565 133.475 724.675 130.511 716.375 C 127.548 708.075 125.04 700.365 124.15 696.5 C 123.995 695.825 123.723 694.705 123.37 693.295 C 123.018 691.885 122.585 690.185 122.11 688.35 C 123.2 692.21 124.01 694.445 125.063 696.189 C 126.115 697.932 127.41 699.185 129.47 701.08 C 130.73 702.24 132.48 704.093 134.286 706.144 C 136.093 708.195 137.955 710.445 139.44 712.4 C 146.38 721.54 159.75 736.425 173.536 750.79 C 187.323 765.155 201.525 779 210.13 786.06 C 216.01 790.88 220.577 794.53 224.25 797.325 C 227.922 800.12 230.7 802.06 233 803.46 C 234.24 804.22 235.757 805.16 237.206 806.064 C 238.655 806.967 240.035 807.835 241 808.45 C 241.965 809.06 243.177 809.832 244.355 810.584 C 245.532 811.335 246.675 812.065 247.5 812.59 C 249.39 813.79 252.812 815.428 255.835 816.693 C 258.857 817.958 261.48 818.85 261.77 818.56 C 261.89 818.445 261.875 818.19 261.755 817.874 C 261.635 817.557 261.41 817.18 261.11 816.82 C 260.81 816.455 260.005 815.45 258.949 814.124 C 257.893 812.797 256.585 811.15 255.28 809.5 C 253.98 807.85 252.537 806.07 251.261 804.53 C 249.985 802.99 248.875 801.69 248.24 801 C 246.585 799.205 241.497 792.125 236.267 784.534 C 231.037 776.942 225.665 768.84 223.44 765 C 222.405 763.21 221.152 761.125 219.967 759.205 C 218.782 757.285 217.665 755.53 216.9 754.4 C 215.32 752.075 211.19 744.423 206.729 735.752 C 202.267 727.082 197.475 717.395 194.57 711 C 189.04 698.83 182.792 681.655 177.479 664.735 C 172.165 647.815 167.785 631.15 165.99 620 C 165.745 618.485 165.352 616.097 164.919 613.47 C 164.485 610.843 164.01 607.975 163.6 605.5 C 161.605 593.59 160.185 576.802 159.521 559.761 C 158.857 542.72 158.95 525.425 159.98 512.5 C 161.595 492.185 163.135 478.19 165.83 464.084 C 168.525 449.977 172.375 435.76 178.61 415 C 179.75 411.215 181.74 405.403 183.72 399.943 C 185.7 394.483 187.67 389.375 188.77 387 C 189.34 385.76 190.268 383.735 191.301 381.47 C 192.335 379.205 193.475 376.7 194.47 374.5 C 197.255 368.35 201.34 360.793 205.124 354.491 C 208.908 348.19 212.39 343.145 213.97 342.02 C 214.75 341.465 215.675 340.96 216.536 340.594 C 217.398 340.228 218.195 340 218.72 340 C 220.13 340 221.7 340.925 222.918 342.228 C 224.135 343.53 225 345.21 225 346.72 C 225 347.45 224.328 349.542 223.245 352.327 C 222.163 355.112 220.67 358.59 219.03 362.09 C 215.93 368.7 213.895 373.187 211.784 378.33 C 209.673 383.473 207.485 389.27 204.08 398.5 C 199 412.26 194.415 428.505 190.745 445.313 C 187.075 462.12 184.32 479.49 182.9 495.5 C 182.075 504.77 181.52 520.622 181.325 535.856 C 181.13 551.09 181.295 565.705 181.91 572.5 C 183.46 589.595 184.282 598.478 185.331 605.895 C 186.38 613.313 187.655 619.265 190.11 630.5 C 191.52 636.94 192.682 641.883 193.909 646.494 C 195.135 651.105 196.425 655.385 198.09 660.5 C 198.895 662.975 199.755 665.62 200.49 667.886 C 201.225 670.153 201.835 672.04 202.14 673 C 203.445 677.08 206.212 684.18 209.362 691.72 C 212.512 699.26 216.045 707.24 218.88 713.08 C 222.935 721.415 227.76 730.723 232.215 738.908 C 236.67 747.093 240.755 754.155 243.33 758 C 246.58 762.855 250.377 768.273 253.734 772.893 C 257.09 777.513 260.005 781.335 261.49 783 C 262.35 783.96 263.6 785.452 264.921 787.084 C 266.242 788.715 267.635 790.485 268.78 792 C 269.92 793.515 271.61 795.575 273.412 797.675 C 275.215 799.775 277.13 801.915 278.72 803.59 C 280.31 805.26 282.362 807.445 284.387 809.62 C 286.412 811.795 288.41 813.96 289.89 815.59 C 292.735 818.71 298.372 824.053 303.854 828.97 C 309.335 833.888 314.66 838.38 316.88 839.8 C 317.6 840.265 318.48 840.897 319.317 841.544 C 320.155 842.19 320.95 842.85 321.5 843.37 C 322.635 844.44 328.125 847.37 334.086 850.271 C 340.047 853.173 346.48 856.045 349.5 857 C 350.6 857.345 351.712 857.743 352.619 858.105 C 353.525 858.468 354.225 858.795 354.5 859 C 354.775 859.2 355.305 859.44 355.939 859.665 C 356.572 859.89 357.31 860.1 358 860.24 C 358.69 860.38 360.775 861.028 363.579 861.958 C 366.382 862.888 369.905 864.1 373.47 865.37 C 387.545 870.375 402.367 874.64 417.639 878.098 C 432.91 881.555 448.63 884.205 464.5 885.98 C 470.995 886.705 476.617 887.138 484.117 887.359 C 491.617 887.58 500.995 887.59 515 887.47 C 532.205 887.325 544.007 886.99 553.92 886.178 C 557.439 885.889 560.719 885.541 563.919 885.119 L 572.495 880.225 L 748.858 837.384 L 821.689 823.817 L 784.559 859.518 L 733.15 887.365 C 741.634 886.799 669.485 920.362 641.041 928.065 L 554.645 952.341 L 468.962 960.195 L 447.232 956.295 C 394.399 952.665 344.928 938.52 300.464 914.743 Z" fill="rgb(91,46,104)" style="paint-order: fill;"/>
    <path d="M 865.097 778.121 C 858.888 786.595 852.009 794.872 844.499 802.885 L 844.498 802.886 C 837.552 810.241 829.879 817.562 821.295 825.116 C 818.773 827.224 798.202 832.174 778.746 836.202 C 769.018 838.216 759.504 840.029 752.591 841.181 C 749.131 841.757 746.297 842.172 744.417 842.363 C 743.465 842.459 742.693 842.502 742.217 842.475 C 741.939 842.459 741.537 842.378 741.313 842.235 C 741.097 842.096 740.781 841.557 740.809 841.229 C 740.831 840.974 741.058 840.626 741.178 840.488 C 742.074 839.671 744.279 838.683 746.013 838.33 C 747.498 838.054 748.7 837.48 748.757 836.999 C 749.006 836.461 749.525 835.859 750.041 835.545 C 750.547 835.236 751.3 835 751.92 835 C 752.629 835 754.006 834.277 755.088 833.269 C 756.338 832.104 758.125 831 758.96 831 C 759.184 831 759 831.189 759 831 C 759 830.447 759.453 829.75 759.883 829.462 C 760.276 829.2 760.941 829 761.5 829 C 761.771 829 761.856 828.975 762.006 828.875 C 762.118 828.8 762 828.997 762 829 C 762 828.447 762.453 827.75 762.883 827.462 C 763.276 827.2 763.941 827 764.5 827 C 764.771 827 764.856 826.975 765.006 826.875 C 765.118 826.8 765 826.997 765 827 C 765 826.447 765.453 825.75 765.883 825.462 C 766.276 825.2 766.941 825 767.5 825 C 768.081 825 769.285 824.3 770.293 823.293 C 771.456 822.13 773.115 821 773.89 821 C 773.885 821 773.806 821.036 773.98 820.859 C 774.178 820.658 774.322 820.457 774.427 820.14 C 774.672 819.582 775.158 818.966 775.642 818.623 C 776.128 818.278 776.875 818 777.47 818 C 777.746 818 777.838 817.973 777.993 817.868 C 778.113 817.788 778 817.977 778 817.97 C 778 817.444 778.37 816.756 778.752 816.362 C 779.114 815.99 779.706 815.607 780.245 815.385 C 780.997 815.119 782.967 813.657 784.646 812.121 C 786.419 810.509 788.626 809 789.48 809 C 789.721 809 790.326 808.459 790.921 807.472 C 791.724 806.238 793.327 805 794.39 805 C 794.812 805 796.235 803.738 797.636 801.892 C 799.155 799.917 801.182 798 802.05 798 C 802.321 798 807.829 792.717 813.495 787.039 C 816.327 784.2 819.105 781.339 821.162 779.124 C 822.189 778.019 823.021 777.09 823.594 776.404 C 824.151 775.735 824.234 775.782 824.283 775.871 C 824.35 775.268 824.659 774.523 825.216 773.933 C 825.745 773.372 826.528 772.687 827.375 772.056 C 828.144 771.49 828.742 770.937 829.151 770.452 C 829.344 770.224 829.435 770.092 829.493 769.966 C 829.524 769.9 829.504 769.955 829.51 769.962 C 829.375 769.522 829.442 769.355 829.605 769.018 C 829.738 768.741 829.987 768.39 830.252 768.088 C 830.755 767.51 831.546 766.806 832.421 766.185 C 833.2 765.631 833.796 765.084 834.201 764.589 C 834.391 764.357 834.474 764.228 834.529 764.098 C 834.558 764.026 834.625 764.303 834.624 764.487 C 834.481 764.149 834.386 763.616 834.467 763.299 C 834.537 763.023 834.728 762.666 834.916 762.423 C 835.259 761.978 835.875 761.471 836.525 761.12 C 837.002 760.862 837.287 760.625 837.491 760.354 C 837.576 760.24 837.571 760.251 837.581 760.207 C 837.582 760.204 837.614 760.47 837.655 760.535 C 837.459 760.225 837.396 759.662 837.471 759.34 C 837.536 759.059 837.724 758.693 837.911 758.444 C 838.252 757.99 838.872 757.472 839.525 757.12 C 840.008 756.859 840.302 756.62 840.512 756.354 C 840.6 756.242 840.595 756.252 840.605 756.212 C 840.605 756.214 840.675 756.464 840.676 756.57 C 840.542 756.287 840.425 755.832 840.462 755.547 C 840.497 755.281 840.654 754.916 840.81 754.698 C 841.086 754.313 841.663 753.907 842.212 753.676 C 842.827 753.549 842.774 753.733 842.688 753.594 C 842.36 753.06 842.477 752.107 842.79 751.585 C 843.071 751.115 843.64 750.584 844.226 750.226 C 844.651 749.982 844.813 749.848 844.874 749.763 C 844.844 749.805 844.732 750.328 844.86 750.575 C 844.979 750.804 845.409 750.986 845.446 751.019 C 845.159 750.98 844.652 750.803 844.449 750.55 C 844.316 750.384 844.194 750.009 844.198 749.811 C 844.201 749.646 844.273 749.387 844.337 749.259 C 844.506 748.918 844.98 748.489 845.469 748.173 C 846.183 747.753 846.5 747.387 846.5 747.26 C 846.5 746.535 847.724 744.754 848.989 743.397 C 849.559 742.786 849.982 742.203 850.27 741.689 C 850.534 741.218 850.499 741.357 850.562 741.332 C 850.465 741.043 850.378 740.698 850.436 740.415 C 850.487 740.16 850.666 739.816 850.83 739.616 C 851.117 739.266 851.677 738.896 852.212 738.676 C 852.504 738.592 852.544 738.529 852.624 738.39 C 852.679 738.296 852.743 738.508 852.645 738.529 C 852.406 738.044 852.287 737.272 852.499 736.848 C 852.72 736.407 853.459 736 854 736 C 854.069 736 853.751 736.181 853.713 736.257 C 853.682 736.319 853.706 736.618 853.649 736.526 C 853.366 736.068 853.287 735.269 853.501 734.844 C 853.721 734.406 854.459 734 855 734 C 855.069 734 854.751 734.181 854.713 734.257 C 854.682 734.319 854.706 734.618 854.649 734.526 C 854.397 734.118 854.246 733.469 854.336 733.072 C 854.393 732.821 854.639 732.43 854.862 732.269 C 855.066 732.121 855.47 732 855.73 732 C 855.711 732 855.745 731.938 856.139 731.47 C 856.555 730.977 856.985 730.332 857.387 729.618 C 857.789 728.905 858.106 728.224 858.293 727.649 C 858.382 727.375 858.419 727.216 858.429 727.069 C 858.435 726.974 858.562 727.188 858.602 727.345 C 858.433 727.158 858.221 726.829 858.173 726.583 C 858.114 726.277 858.277 725.731 858.476 725.514 C 858.753 725.211 859.408 725 859.89 725 C 860.016 725 859.755 725.133 859.723 725.187 C 859.683 725.253 859.697 725.603 859.649 725.526 C 859.366 725.068 859.287 724.269 859.501 723.844 C 859.721 723.406 860.459 723 861 723 C 861.069 723 860.751 723.181 860.713 723.257 C 860.682 723.319 860.706 723.618 860.649 723.526 C 860.366 723.068 860.287 722.269 860.501 721.844 C 860.721 721.406 861.459 721 862 721 C 862.069 721 861.751 721.181 861.713 721.257 C 861.682 721.319 861.706 721.618 861.649 721.526 C 861.366 721.068 861.287 720.269 861.501 719.844 C 861.721 719.406 862.459 719 863 719 C 863.069 719 862.751 719.181 862.713 719.257 C 862.682 719.319 862.706 719.618 862.649 719.526 C 862.366 719.068 862.287 718.269 862.501 717.844 C 862.721 717.406 863.459 717 864 717 C 864.069 717 863.751 717.181 863.713 717.257 C 863.682 717.319 863.706 717.618 863.649 717.526 C 863.366 717.068 863.287 716.269 863.501 715.844 C 863.721 715.406 864.459 715 865 715 C 865.069 715 864.751 715.181 864.713 715.257 C 864.682 715.319 864.706 715.618 864.649 715.526 C 864.385 715.099 864.256 714.388 864.396 713.974 C 864.481 713.725 864.763 713.367 864.995 713.225 C 865.202 713.099 865.582 713 865.84 713 C 865.748 713 865.67 713.011 865.976 712.528 C 866.302 712.014 866.622 711.351 866.903 710.636 C 867.182 709.923 867.377 709.279 867.451 708.784 C 867.485 708.559 867.487 708.51 867.477 708.464 C 867.481 708.479 867.562 708.659 867.627 708.729 C 867.715 708.824 868.034 708.932 868.167 708.978 C 868.038 708.967 867.846 708.944 867.714 708.891 C 867.523 708.815 867.194 708.512 867.104 708.292 C 866.963 707.947 867.134 707.345 867.276 707.147 C 867.457 706.898 867.863 706.56 868.27 706.292 C 868.805 706.048 869.222 705.094 869.263 704.085 C 869.32 703.412 869.479 702.71 869.681 702.24 C 869.79 701.985 869.968 701.684 870.132 701.502 C 870.332 701.28 870.824 701 871.18 701 C 871.061 701 870.723 701.168 870.654 701.252 C 870.611 701.305 870.552 701.467 870.555 701.442 C 870.571 701.307 870.556 701.164 870.423 700.85 C 870.237 700.277 870.189 699.529 870.368 699.074 C 870.47 698.813 870.737 698.46 870.975 698.295 C 871.209 698.134 871.643 698 871.95 698 C 872.044 698 871.753 698.158 871.717 698.223 C 871.682 698.287 871.702 698.611 871.649 698.526 C 871.362 698.061 871.297 697.237 871.532 696.811 C 871.768 696.383 872.504 696 873.05 696 C 873.063 696 872.902 696.05 872.887 696.06 C 872.867 696.073 872.766 696.206 872.77 696.197 C 872.804 696.109 872.827 696.107 872.705 695.853 C 872.514 695.289 872.45 694.569 872.601 694.12 C 872.689 693.858 872.935 693.495 873.162 693.322 C 873.39 693.149 873.834 693 874.14 693 C 874.128 693 873.932 693.066 873.902 693.089 C 873.873 693.111 873.775 693.256 873.778 693.246 C 873.81 693.151 873.827 693.12 873.704 692.852 C 873.516 692.312 873.429 691.64 873.533 691.206 C 873.595 690.947 873.799 690.567 874.006 690.379 C 874.222 690.182 874.689 690 875 690 C 874.949 690 874.697 690.098 874.647 690.143 C 874.607 690.18 874.52 690.34 874.523 690.328 C 874.548 690.22 874.553 690.138 874.423 689.85 C 874.237 689.29 874.175 688.571 874.323 688.124 C 874.41 687.863 874.654 687.498 874.881 687.324 C 875.108 687.15 875.553 687 875.86 687 C 875.849 687 875.655 687.065 875.626 687.087 C 875.598 687.108 875.5 687.252 875.503 687.242 C 875.535 687.149 875.532 687.133 875.427 686.86 C 875.206 686.286 875.192 685.505 875.39 685.045 C 875.502 684.783 875.782 684.439 876.027 684.28 C 876.264 684.125 876.693 684 877 684 C 877.028 684 876.887 684.041 876.882 684.044 C 876.87 684.052 876.768 684.177 876.772 684.167 C 876.807 684.086 876.806 684.116 876.707 683.86 C 876.492 683.303 876.45 682.569 876.601 682.12 C 876.689 681.858 876.935 681.495 877.162 681.322 C 877.39 681.149 877.834 681 878.14 681 C 878.134 681 877.95 681.059 877.925 681.078 C 877.898 681.097 877.796 681.239 877.798 681.235 C 877.827 681.155 877.848 681.156 877.727 680.919 C 877.544 680.375 877.484 679.659 877.614 679.184 C 877.755 678.672 878.315 678.091 878.834 677.831 C 878.836 677.975 878.771 677.806 878.948 677.174 C 879.137 676.499 879.266 675.653 879.29 674.691 C 879.325 673.614 879.462 672.57 879.655 671.836 C 879.757 671.451 879.906 671.052 880.058 670.79 C 880.247 670.467 880.818 670 881.27 670 C 881.133 670 880.781 670.202 880.734 670.27 C 880.72 670.289 880.689 670.382 880.699 670.296 C 880.728 670.05 880.702 669.761 880.547 669.304 C 880.341 668.617 880.261 667.85 880.374 667.345 C 880.441 667.049 880.649 666.641 880.868 666.429 C 881.103 666.203 881.605 666 881.95 666 C 881.908 666 881.64 666.121 881.609 666.155 C 881.606 666.16 881.566 666.249 881.586 666.139 C 881.643 665.831 881.616 665.421 881.44 664.743 C 881.227 663.863 881.149 663.006 881.273 662.437 C 881.346 662.101 881.572 661.658 881.819 661.431 C 882.079 661.191 882.599 661 882.96 661 C 882.985 661 882.802 661.06 882.78 661.078 C 882.759 661.095 882.67 661.24 882.681 661.2 C 882.729 661.021 882.72 660.808 882.546 660.3 C 882.335 659.59 882.255 658.809 882.385 658.3 C 882.462 657.997 882.699 657.583 882.94 657.379 C 883.187 657.17 883.673 657 884.01 657 C 884.006 657 883.752 657.108 883.726 657.138 C 883.727 657.136 883.691 657.22 883.714 657.08 C 883.776 656.698 883.728 656.136 883.523 655.213 C 883.293 654.141 883.205 653.195 883.315 652.569 C 883.38 652.201 883.59 651.732 883.835 651.483 C 884.103 651.211 884.652 651 885.03 651 C 885.044 651 884.797 651.105 884.776 651.128 C 884.787 651.116 884.761 651.178 884.788 651.001 C 884.859 650.541 884.805 649.837 884.587 648.685 C 884.355 647.443 884.267 646.403 884.367 645.714 C 884.424 645.319 884.608 644.836 884.837 644.566 C 885.099 644.256 885.68 644 886.08 644 C 886.066 644 885.783 644.139 885.768 644.16 C 885.795 644.123 885.793 644.126 885.822 643.882 C 885.893 643.298 885.828 642.396 885.602 640.987 C 885.387 639.618 885.312 638.392 885.393 637.492 C 885.479 636.529 885.945 635.6 886.492 635.141 C 887.102 635.012 887.541 623.429 887.796 611.58 C 887.924 605.655 887.948 599.779 887.836 595.376 C 887.78 593.179 887.692 591.379 887.566 590.118 C 887.504 589.498 887.441 589.062 887.369 588.763 C 887.337 588.632 887.332 588.618 887.323 588.6 C 887.353 588.658 887.771 589 888.06 589 C 887.599 589 886.938 588.665 886.662 588.245 C 886.44 587.905 886.284 587.337 886.233 586.783 C 886.14 585.769 886.244 584.164 886.507 581.884 C 886.749 579.807 886.833 578.402 886.766 577.494 C 886.736 577.076 886.702 576.915 886.641 576.793 C 886.63 576.77 886.971 577 887.06 577 C 886.6 577 885.963 576.607 885.73 576.206 C 885.545 575.889 885.413 575.373 885.368 574.886 C 885.285 573.991 885.371 572.627 885.599 570.868 C 885.82 569.213 885.89 568.073 885.824 567.32 C 885.794 566.979 885.769 566.875 885.72 566.784 C 885.718 566.781 886.057 567 886.15 567 C 885.755 567 885.19 566.721 884.95 566.425 C 884.745 566.171 884.572 565.726 884.513 565.37 C 884.407 564.743 884.471 563.81 884.669 562.804 C 884.856 561.883 884.889 561.327 884.817 560.947 C 884.791 560.806 884.826 560.883 884.821 560.877 C 884.842 560.9 885.082 561 885.08 561 C 884.68 561 884.099 560.744 883.837 560.434 C 883.608 560.164 883.424 559.681 883.367 559.286 C 883.267 558.597 883.355 557.558 883.587 556.317 C 883.805 555.143 883.861 554.44 883.789 553.99 C 883.762 553.821 883.795 553.896 883.788 553.888 C 883.807 553.909 884.036 554 884 554 C 883.643 554 883.133 553.83 882.865 553.602 C 882.604 553.38 882.358 552.934 882.278 552.594 C 882.144 552.023 882.222 551.157 882.44 550.257 C 882.621 549.559 882.648 549.157 882.588 548.862 C 882.568 548.762 882.617 548.864 882.624 548.871 C 882.652 548.9 882.895 549 882.91 549 C 882.545 549 882.016 548.782 881.767 548.528 C 881.54 548.297 881.337 547.862 881.271 547.532 C 881.158 546.967 881.232 546.116 881.441 545.254 C 881.612 544.607 881.639 544.188 881.586 543.864 C 881.566 543.742 881.593 543.81 881.592 543.809 C 881.622 543.847 881.922 544 882 544 C 881.617 544 881.067 543.717 880.845 543.438 C 880.654 543.199 880.493 542.779 880.441 542.459 C 880.349 541.898 880.422 541.07 880.62 540.258 C 880.777 539.645 880.81 539.197 880.771 538.842 C 880.755 538.697 880.764 538.725 880.756 538.713 C 880.786 538.762 881.151 539 881.31 539 C 880.865 539 880.296 538.56 880.099 538.242 C 879.938 537.983 879.779 537.585 879.672 537.206 C 879.47 536.485 879.325 535.451 879.29 534.395 C 879.252 532.492 879.026 530.981 878.758 530.925 C 878.099 530.297 877.417 528.084 877.272 526.072 C 877.219 525.17 877.072 524.379 876.874 523.746 C 876.689 523.153 876.741 523.199 876.742 523.125 C 876.239 522.853 875.708 522.286 875.586 521.776 C 875.475 521.312 875.547 520.609 875.729 520.075 C 875.85 519.852 875.822 519.89 875.792 519.819 C 875.789 519.814 875.894 519.942 875.91 519.952 C 875.918 519.958 876.063 520 876.04 520 C 875.704 520 875.223 519.841 874.971 519.639 C 874.721 519.438 874.471 519.024 874.388 518.718 C 874.249 518.203 874.331 517.411 874.548 516.694 C 874.706 516.242 874.717 515.998 874.672 515.777 C 874.658 515.707 874.71 515.819 874.725 515.835 C 874.762 515.876 875.037 516 875.1 516 C 874.793 516 874.343 515.843 874.118 515.664 C 873.897 515.486 873.661 515.118 873.581 514.856 C 873.443 514.411 873.495 513.691 873.707 513.14 C 873.806 512.884 873.807 512.914 873.772 512.833 C 873.768 512.823 873.87 512.948 873.882 512.956 C 873.887 512.959 874.028 513 874 513 C 873.693 513 873.264 512.875 873.027 512.72 C 872.782 512.561 872.502 512.216 872.39 511.955 C 872.192 511.494 872.206 510.714 872.427 510.14 C 872.54 509.846 872.548 509.78 872.523 509.672 C 872.52 509.659 872.607 509.82 872.647 509.857 C 872.697 509.902 872.949 510 873 510 C 872.688 510 872.222 509.818 872.006 509.621 C 871.799 509.433 871.595 509.053 871.533 508.794 C 871.428 508.36 871.516 507.688 871.704 507.147 C 871.828 506.88 871.81 506.849 871.778 506.754 C 871.775 506.744 871.873 506.889 871.902 506.911 C 871.931 506.934 872.128 507 872.14 507 C 871.834 507 871.39 506.851 871.162 506.678 C 870.935 506.505 870.689 506.142 870.601 505.88 C 870.45 505.431 870.514 504.711 870.705 504.147 C 870.828 503.88 870.81 503.849 870.778 503.754 C 870.775 503.744 870.873 503.889 870.902 503.911 C 870.931 503.934 871.128 504 871.14 504 C 870.834 504 870.39 503.851 870.162 503.678 C 869.935 503.505 869.689 503.142 869.601 502.88 C 869.45 502.431 869.514 501.711 869.705 501.147 C 869.827 500.893 869.804 500.891 869.77 500.803 C 869.766 500.794 869.867 500.927 869.887 500.94 C 869.902 500.95 870.063 501 870.05 501 C 869.504 501 868.768 500.617 868.532 500.189 C 868.297 499.763 868.362 498.939 868.649 498.474 C 868.718 498.363 868.686 498.612 868.71 498.671 C 868.736 498.735 868.905 498.924 868.958 498.954 C 868.984 498.968 869.117 499 869.09 499 C 868.783 499 868.332 498.84 868.109 498.659 C 867.889 498.481 867.658 498.113 867.578 497.852 C 867.443 497.409 867.514 496.705 867.704 496.147 C 867.827 495.893 867.804 495.891 867.77 495.803 C 867.766 495.794 867.867 495.927 867.887 495.94 C 867.902 495.95 868.063 496 868.05 496 C 867.504 496 866.768 495.617 866.532 495.189 C 866.297 494.763 866.362 493.939 866.649 493.474 C 866.718 493.363 866.686 493.612 866.71 493.671 C 866.736 493.735 866.905 493.924 866.958 493.954 C 866.984 493.968 867.117 494 867.09 494 C 866.783 494 866.332 493.84 866.109 493.659 C 865.889 493.481 865.658 493.113 865.578 492.852 C 865.443 492.409 865.514 491.705 865.704 491.147 C 865.827 490.893 865.804 490.891 865.77 490.803 C 865.766 490.794 865.867 490.927 865.887 490.94 C 865.902 490.95 866.063 491 866.05 491 C 865.504 491 864.768 490.617 864.532 490.189 C 864.297 489.763 864.362 488.939 864.649 488.474 C 864.706 488.382 864.682 488.681 864.713 488.743 C 864.751 488.819 865.069 489 865 489 C 864.459 489 863.721 488.594 863.501 488.156 C 863.287 487.731 863.366 486.932 863.649 486.474 C 863.702 486.389 863.682 486.713 863.717 486.777 C 863.753 486.842 864.044 487 863.95 487 C 863.643 487 863.209 486.866 862.975 486.705 C 862.737 486.54 862.47 486.187 862.368 485.926 C 862.189 485.471 862.241 484.714 862.427 484.14 C 862.555 483.869 862.538 483.829 862.508 483.73 C 862.505 483.719 862.599 483.868 862.632 483.894 C 862.668 483.924 862.883 484 862.91 484 C 862.652 484 862.282 483.912 862.073 483.796 C 861.836 483.665 861.537 483.328 861.437 483.083 C 861.266 482.662 861.378 481.913 861.649 481.474 C 861.706 481.382 861.682 481.681 861.713 481.743 C 861.751 481.819 862.069 482 862 482 C 861.459 482 860.721 481.594 860.501 481.156 C 860.287 480.731 860.366 479.932 860.649 479.474 C 860.706 479.382 860.682 479.681 860.713 479.743 C 860.751 479.819 861.069 480 861 480 C 860.459 480 859.721 479.594 859.501 479.156 C 859.287 478.731 859.366 477.932 859.649 477.474 C 859.718 477.363 859.686 477.612 859.71 477.671 C 859.736 477.735 859.904 477.924 859.958 477.954 C 859.984 477.968 860.117 478 860.09 478 C 859.783 478 859.332 477.84 859.109 477.659 C 858.889 477.481 858.658 477.113 858.578 476.852 C 858.443 476.409 858.514 475.704 858.705 475.147 C 858.827 474.883 858.808 474.861 858.776 474.769 C 858.773 474.76 858.873 474.902 858.899 474.922 C 858.924 474.94 859.108 475 859.11 475 C 858.647 475 858.052 474.801 857.748 474.55 C 857.398 474.261 857.198 473.513 857.234 472.993 C 857.415 472.536 857.104 471.561 856.635 470.502 C 856.402 469.977 856.166 469.557 855.916 469.232 C 855.691 468.94 855.804 469 855.87 469 C 855.613 469 855.238 468.905 855.031 468.784 C 854.798 468.647 854.51 468.302 854.418 468.055 C 854.263 467.639 854.381 466.909 854.649 466.474 C 854.706 466.382 854.682 466.681 854.713 466.743 C 854.751 466.819 855.069 467 855 467 C 854.469 467 853.741 466.621 853.51 466.198 C 853.281 465.779 853.391 465.007 853.625 464.524 C 853.717 464.594 853.602 464.609 853.414 464.204 C 853.205 463.754 852.887 463.301 852.413 462.827 C 851.83 462.245 851.319 461.573 851.034 461.043 C 850.88 460.759 850.741 460.401 850.694 460.135 C 850.635 459.804 850.823 459.227 851.043 458.873 C 851.038 458.906 850.898 459.126 850.885 459.249 C 850.866 459.425 851.036 459.826 851.131 459.912 C 851.183 459.959 851.314 460 851.11 460 C 850.556 460 849.82 459.642 849.568 459.225 C 849.308 458.797 849.357 457.947 849.649 457.474 C 849.706 457.382 849.682 457.681 849.713 457.743 C 849.751 457.819 850.069 458 850 458 C 849.459 458 848.721 457.594 848.501 457.156 C 848.287 456.731 848.366 455.932 848.649 455.474 C 848.706 455.382 848.682 455.681 848.713 455.743 C 848.751 455.819 849.069 456 849 456 C 848.486 456 847.777 455.664 847.529 455.271 C 847.272 454.863 847.36 454.065 847.587 453.579 C 847.599 453.616 847.533 453.792 847.534 453.805 C 847.534 453.804 847.572 453.9 847.541 453.855 C 847.448 453.717 847.377 453.639 847.072 453.544 C 846.504 453.298 845.903 452.836 845.647 452.395 C 845.364 451.909 845.403 451.059 845.65 450.488 C 845.746 450.424 845.682 450.683 845.712 450.742 C 845.75 450.818 846.069 451 846 451 C 845.459 451 844.721 450.594 844.501 450.156 C 844.287 449.731 844.366 448.932 844.649 448.474 C 844.706 448.382 844.682 448.681 844.713 448.743 C 844.751 448.819 845.069 449 845 449 C 844.459 449 843.72 448.593 843.499 448.152 C 843.287 447.728 843.417 446.939 843.656 446.453 C 843.754 446.474 843.679 446.704 843.624 446.61 C 843.543 446.471 843.504 446.408 843.212 446.324 C 842.67 446.098 842.1 445.709 841.818 445.341 C 841.657 445.132 841.488 444.776 841.446 444.514 C 841.399 444.228 841.484 443.737 841.653 443.468 C 841.619 443.522 841.575 443.773 841.581 443.81 C 841.583 443.822 841.629 443.92 841.595 443.876 C 841.49 443.739 841.39 443.648 841.072 443.544 C 840.504 443.298 839.903 442.836 839.647 442.395 C 839.364 441.909 839.403 441.059 839.65 440.488 C 839.75 440.413 839.682 440.683 839.712 440.742 C 839.75 440.818 840.069 441 840 441 C 839.486 441 838.777 440.664 838.529 440.271 C 838.272 439.863 838.36 439.065 838.587 438.579 C 838.599 438.616 838.533 438.792 838.534 438.805 C 838.534 438.804 838.572 438.9 838.541 438.855 C 838.448 438.717 838.377 438.639 838.072 438.544 C 837.504 438.298 836.903 437.836 836.647 437.395 C 836.364 436.909 836.403 436.059 836.65 435.488 C 836.75 435.413 836.682 435.683 836.712 435.742 C 836.75 435.818 837.069 436 837 436 C 836.503 436 835.824 435.71 835.56 435.358 C 835.406 435.151 835.272 434.727 835.282 434.461 C 835.291 434.226 835.42 433.874 835.541 433.652 C 835.536 433.828 835.459 434.056 835.419 433.93 C 835.364 433.752 835.27 433.554 835.093 433.253 C 834.724 432.626 834.174 431.891 833.467 431.131 C 831.925 429.463 830.55 427.246 830.807 426.437 C 830.781 426.518 830.866 426.796 830.758 426.677 C 830.614 426.517 830.468 426.405 830.16 426.303 C 829.624 426.075 829.055 425.668 828.787 425.283 C 828.636 425.066 828.487 424.7 828.456 424.435 C 828.424 424.154 828.546 423.703 828.679 423.425 C 828.679 423.531 828.605 423.786 828.605 423.788 C 828.595 423.748 828.6 423.758 828.512 423.646 C 828.302 423.38 828.008 423.141 827.525 422.88 C 826.872 422.528 826.252 422.01 825.911 421.556 C 825.724 421.307 825.536 420.941 825.471 420.66 C 825.396 420.338 825.459 419.775 825.655 419.465 C 825.614 419.53 825.582 419.796 825.581 419.793 C 825.571 419.749 825.576 419.76 825.491 419.646 C 825.287 419.375 825.002 419.138 824.525 418.88 C 823.872 418.528 823.252 418.01 822.911 417.556 C 822.724 417.307 822.536 416.941 822.471 416.66 C 822.396 416.338 822.459 415.775 822.655 415.465 C 822.614 415.53 822.582 415.796 822.581 415.793 C 822.571 415.749 822.576 415.76 822.491 415.646 C 822.287 415.375 822.002 415.138 821.525 414.88 C 820.871 414.527 820.252 414.007 819.912 413.552 C 819.726 413.302 819.54 412.937 819.475 412.656 C 819.4 412.337 819.511 411.79 819.655 411.455 C 819.655 411.591 819.579 411.852 819.566 411.813 C 819.537 411.72 819.499 411.653 819.363 411.474 C 819.062 411.08 818.625 410.673 817.994 410.268 C 817.242 409.774 816.548 409.172 816.13 408.661 C 815.907 408.388 815.688 408.038 815.585 407.764 C 815.461 407.431 815.527 406.841 815.671 406.448 C 815.667 406.655 815.596 406.96 815.566 406.893 C 815.508 406.765 815.42 406.635 815.225 406.406 C 814.811 405.918 814.204 405.372 813.421 404.815 C 812.544 404.192 811.751 403.478 811.25 402.889 C 810.987 402.579 810.74 402.216 810.61 401.929 C 810.454 401.581 810.488 400.944 810.628 400.512 C 810.629 400.754 810.559 401.068 810.505 400.963 C 810.42 400.798 810.286 400.612 810.043 400.33 C 809.534 399.74 808.789 399.047 807.861 398.344 C 806.862 397.575 805.965 396.751 805.381 396.082 C 805.079 395.736 804.803 395.358 804.649 395.061 C 804.464 394.704 804.494 394.519 804.505 394.19 C 804.502 394.199 804.5 394.208 804.498 394.203 C 804.469 394.136 804.424 394.062 804.308 393.898 C 804.059 393.546 803.674 393.088 803.143 392.512 C 802.067 391.346 800.525 389.853 798.747 388.289 C 796.942 386.69 795.344 385.153 794.248 383.987 C 793.694 383.398 793.236 382.867 792.948 382.474 C 792.795 382.265 792.645 382.025 792.566 381.847 C 792.516 381.735 792.453 381.527 792.44 381.387 C 792.422 381.179 792.599 380.759 792.747 380.512 C 792.7 380.761 792.558 381.104 792.534 381.035 C 792.488 380.895 792.402 380.737 792.221 380.465 C 791.841 379.894 791.263 379.213 790.578 378.511 C 789.203 377.1 787.858 376 787.41 376 C 786.404 376 782.567 372.56 778.976 368.68 C 775.431 364.854 772.438 362 772.23 362 C 771.333 362 769.296 360.084 767.776 358.108 C 766.373 356.26 764.97 355 764.56 355 C 763.509 355 761.75 353.537 760.752 352.046 C 759.96 350.785 758.969 350 758.45 350 C 757.858 350 757.115 349.72 756.631 349.374 C 756.152 349.031 755.667 348.407 755.423 347.85 C 755.34 347.564 755.198 347.414 754.953 347.217 C 754.72 347.029 754.66 347 754.51 347 C 753.486 347 751.748 345.534 750.752 344.046 C 749.959 342.784 748.978 342 748.48 342 C 747.921 342 747.254 341.793 746.864 341.522 C 746.439 341.229 746 340.532 746 339.98 C 746 339.999 746.003 340.038 745.646 339.755 C 745.255 339.445 744.766 339.169 744.147 338.936 C 743.386 338.649 742.625 338.22 742.111 337.812 C 741.563 337.378 741 336.609 741 336.02 C 741 336.003 741.1 336.181 740.999 336.107 C 740.87 336.013 740.833 336 740.61 336 C 740.038 336 739.31 335.708 738.848 335.358 C 738.393 335.013 737.94 334.407 737.706 333.857 C 737.628 333.582 737.481 333.448 737.206 333.249 C 736.936 333.053 736.801 333 736.57 333 C 735.443 333 733.902 331.827 733.218 330.662 C 732.83 329.836 730.794 328.361 728.647 327.342 C 727.504 326.792 726.429 326.189 725.661 325.682 C 724.866 325.156 724.442 324.635 724.157 324.113 C 724.149 324.118 724.231 324.172 724.121 324.116 C 723.953 324.033 723.805 324 723.5 324 C 722.941 324 722.276 323.8 721.883 323.538 C 721.453 323.25 721 322.553 721 322 C 721 322.003 721.118 322.2 721.006 322.125 C 720.856 322.025 720.771 322 720.5 322 C 719.941 322 719.276 321.8 718.883 321.538 C 718.453 321.25 718 320.553 718 320 C 718 320.003 718.118 320.2 718.006 320.125 C 717.856 320.025 717.771 320 717.5 320 C 716.944 320 716.284 319.806 715.891 319.549 C 715.46 319.267 715 318.572 715 318.02 C 715 318.082 715.066 318.203 714.726 317.985 C 714.344 317.738 713.872 317.53 713.257 317.38 C 712.497 317.187 711.731 316.877 711.211 316.56 C 710.648 316.216 710 315.479 710 314.89 C 710 314.946 710.158 315.185 710.05 315.121 C 709.896 315.029 709.786 315 709.5 315 C 708.941 315 708.276 314.8 707.883 314.538 C 707.453 314.25 707 313.553 707 313 C 707 312.995 707.11 313.185 707.007 313.113 C 706.872 313.018 706.815 313 706.57 313 C 705.578 313 703.989 312.231 703.123 311.427 C 702.492 310.792 700.6 309.721 698.872 309.016 C 697.935 308.634 697.036 308.166 696.405 307.752 C 695.74 307.316 695 306.541 695 305.96 C 695 306.124 695.036 306.238 694.482 305.928 C 693.891 305.597 693.102 305.255 692.184 304.949 C 691.183 304.615 690.223 304.201 689.545 303.824 C 688.829 303.427 688 302.655 688 302.05 C 688 302.27 688.164 302.503 687.97 302.352 C 687.739 302.171 687.413 301.96 686.96 301.699 C 686.037 301.168 684.78 300.55 683.361 299.951 C 680.435 298.716 676.411 296.629 674.445 295.332 C 672.587 294.087 669.095 292.415 666.681 291.608 C 659.891 289.328 650.644 284.971 649.68 283.577 C 649.582 283.206 648.647 283 647.5 283 C 646.032 283 644.158 282.348 643.649 281.526 C 643.461 281.221 642.905 281 642.15 281 C 641.032 281 638.247 280.008 636.006 278.861 C 633.877 277.774 629.031 275.957 625.214 274.818 C 621.337 273.659 617.717 272.268 617.211 271.744 C 616.672 270.913 610.437 269 608.24 269 C 606.909 269 605.27 268.32 604.695 267.609 C 604.655 267.314 602.839 266.827 600.575 266.456 C 598.204 266.058 594.628 265.145 592.662 264.441 C 587.957 262.752 579.692 260.448 571.272 258.474 C 540.93 251.376 534.723 250.034 527.177 248.94 C 523.964 248.478 516.376 247.195 510.321 246.104 C 504.287 245.007 490.362 242.94 479.371 241.502 C 468.366 240.071 458.632 238.712 457.744 238.477 C 456.983 238.275 451.314 237.614 445.105 237.015 C 438.868 236.422 431.142 235.269 427.955 234.48 C 424.853 233.696 418.055 232.385 412.842 231.557 C 402.893 229.964 400.001 229.388 385.377 226.035 C 375.738 223.827 370.136 222.182 367.302 220.769 C 366.471 220.322 364.97 220 363.91 220 C 361.818 220 356.738 218.138 352.287 215.801 C 351.441 215.333 350.187 215 349.45 215 C 347.538 215 342.221 212.658 324.905 204.291 C 318.802 201.343 313.12 199 312.25 199 C 311.831 199 311.58 199.136 311.071 199.675 C 310.52 200.26 309.997 201.102 309.432 202.361 C 307.945 205.591 307.838 207.482 308.448 216.885 C 309.459 232.432 309.259 255.629 308.078 261.15 C 307.54 263.646 306.335 270.174 305.416 275.666 C 303.677 285.98 297.723 308.524 295.871 311.748 C 295.36 312.585 295 313.861 295 314.64 C 295 316.799 288.302 338.175 286.859 340.734 C 286.363 341.584 286 342.806 286 343.5 C 286 344.471 285.527 346.17 284.999 347.218 C 283.791 349.549 276.423 373.78 273.438 385.251 C 272.081 390.504 270.459 395.681 269.865 396.741 C 269.365 397.573 269 398.962 269 399.88 C 269 401.031 267.636 407.618 265.993 414.493 C 262.619 428.593 258.369 452.784 256.663 467.615 C 255.107 481.057 255.177 530.467 256.774 545.394 C 260.743 582.709 269.001 616.829 282.12 650.133 C 286.497 661.242 302.65 695.236 304.403 697.069 C 305.14 697.865 306.104 699.596 306.513 700.876 C 306.87 701.995 307.49 703.286 307.923 703.773 C 309.752 705.936 326 731.199 326 732.15 C 326 732.223 325.953 732.229 326.168 732.262 C 327.037 732.714 329.517 735.483 331.674 738.215 C 333.831 740.948 336 744.036 336 744.89 C 336 745.051 335.999 745.049 336.059 745.14 C 336.096 745.198 336.059 745.161 336.039 745.16 C 337.202 745.909 340.637 749.517 344.772 754.545 C 352.483 763.912 370.572 782.36 379.79 790.24 C 382.692 792.721 386.542 796.238 388.339 798.045 C 390.07 799.785 391.642 801 391.92 801 C 392.837 801 394.3 802.257 395.079 803.471 C 395.675 804.461 396.289 805.125 396.508 805 C 396.968 805.042 439.776 822.457 482.334 839.882 C 503.613 848.595 524.875 857.32 540.818 863.89 C 548.789 867.176 555.432 869.924 560.081 871.862 C 562.406 872.831 564.236 873.599 565.483 874.131 C 566.108 874.397 566.592 874.606 566.919 874.751 C 567.084 874.825 567.22 874.887 567.31 874.931 C 567.36 874.954 567.417 874.983 567.454 875.004 C 567.48 875.018 567.533 875.05 567.567 875.074 C 567.641 875.126 568 875.544 568 875.9 C 568 875.623 567.724 875.207 567.608 875.124 C 567.555 875.086 567.457 875.038 567.444 875.034 C 567.461 875.04 567.482 875.045 567.586 875.065 C 567.821 875.108 568.166 875.152 568.652 875.199 C 569.637 875.295 571.059 875.387 572.837 875.472 C 576.398 875.643 581.306 875.78 586.712 875.84 C 587.439 875.849 587.914 875.868 588.157 875.894 C 588.233 875.903 588.338 875.92 588.406 875.937 C 588.542 875.971 589.068 876.299 589.168 876.661 C 589.219 876.844 589.175 877.224 589.1 877.376 C 589.044 877.49 588.902 877.654 588.835 877.71 C 588.752 877.778 588.606 877.855 588.547 877.879 C 588.475 877.908 588.364 877.938 588.299 877.952 C 587.929 878.032 586.972 878.122 586.054 878.212 C 585.137 878.301 584.255 878.389 583.92 878.46 C 583.87 878.471 584.084 878.397 584.222 878.264 C 584.34 878.151 584.543 877.717 584.517 877.46 C 584.494 877.22 584.248 876.857 584.127 876.768 C 584.028 876.694 583.858 876.631 583.835 876.625 C 583.915 876.644 584.179 876.667 584.792 876.691 C 587.279 876.805 588.843 877.189 589.388 877.765 C 589.607 877.996 589.799 878.489 589.785 878.796 C 589.773 879.082 589.6 879.479 589.445 879.684 C 589.19 880.021 588.707 880.381 588.241 880.65 C 586.48 881.665 583.125 882.692 581.708 882.998 C 562.355 887.117 549.455 888.178 515.009 888.47 C 486.98 888.71 477.42 888.427 464.389 886.974 C 432.594 883.415 401.342 876.339 373.134 866.312 C 366.015 863.776 359.123 861.485 357.801 861.22 C 356.353 860.921 354.578 860.268 353.902 859.802 C 353.465 859.455 351.362 858.631 349.198 857.953 C 343.09 856.016 323.207 846.322 320.813 844.097 C 319.752 843.09 317.745 841.547 316.339 840.641 C 311.834 837.752 294.875 822.537 289.15 816.262 C 286.194 813.007 281.171 807.614 277.995 804.279 C 274.798 800.91 270.282 795.658 267.982 792.602 C 265.702 789.585 262.448 785.567 260.744 783.666 C 257.742 780.297 249.01 768.282 242.499 758.556 C 237.325 750.827 226.101 730.207 217.98 713.517 C 212.299 701.811 203.812 681.503 201.187 673.303 C 200.578 671.386 198.749 665.759 197.139 660.81 C 193.801 650.553 191.958 643.615 189.133 630.713 C 184.216 608.207 184.017 606.805 180.914 572.59 C 179.682 558.949 180.252 513.99 181.904 495.412 C 184.753 463.329 192.962 425.74 203.142 398.154 C 209.958 379.677 211.915 374.908 218.124 361.666 C 221.391 354.696 224 347.999 224 346.72 C 224 345.439 223.311 344.113 222.187 342.91 C 221.066 341.711 219.876 341 218.72 341 C 217.866 341 216.016 341.777 214.55 342.835 C 211.529 344.935 200.924 362.663 195.381 374.912 C 193.39 379.314 190.818 384.939 189.677 387.42 C 187.494 392.13 181.839 407.744 179.568 415.288 C 167.11 456.758 164.2 472.004 160.977 512.579 C 158.918 538.37 160.603 581.58 164.587 605.337 C 165.407 610.287 166.487 616.809 166.977 619.841 C 170.551 642.071 184.442 686.303 195.48 710.586 C 201.28 723.354 214.599 749.242 217.728 753.839 C 219.269 756.117 222.228 760.907 224.305 764.499 C 228.735 772.147 245.71 796.788 248.976 800.323 C 250.263 801.722 253.457 805.571 256.065 808.88 C 258.674 812.179 261.283 815.456 261.878 816.18 C 262.224 816.604 262.539 817.121 262.69 817.519 C 262.773 817.738 262.845 818.043 262.852 818.261 C 262.861 818.53 262.662 818.988 262.469 819.271 C 262.04 819.488 261.382 819.63 260.961 819.551 C 260.586 819.481 260.075 819.34 259.52 819.161 C 258.425 818.808 256.975 818.254 255.449 817.615 C 252.403 816.34 248.905 814.663 246.963 813.434 C 245.312 812.383 242.39 810.512 240.462 809.293 C 238.537 808.066 234.955 805.831 232.478 804.313 C 227.835 801.484 221.27 796.484 209.496 786.833 C 192.242 772.673 152.561 731.329 138.644 713.005 C 135.696 709.123 131.276 704.098 128.793 701.816 C 124.634 697.986 123.425 696.51 121.141 688.598 C 120.542 686.261 119.873 683.715 119.223 681.256 C 105.687 630.055 103.407 564.988 113.043 505.021 C 115.741 488.301 122.91 459.163 128.401 442.684 C 141.485 403.386 156.304 372.447 193.14 307.507 C 221.659 257.239 226.422 246.606 230.666 223.559 C 232.298 214.724 232.791 198.983 232.122 187.337 L 234.113 187.164 C 234.222 188.131 234.289 188.646 234.38 188.626 C 234.618 188.885 234.603 188.871 234.764 188.875 C 234.996 188.881 235.211 188.802 235.804 188.431 C 237.103 187.618 239.129 185.829 242.7 182.517 C 250.788 175.013 254.704 171.888 264.48 165.098 C 271.973 159.907 288.998 150 290.67 150 C 290.938 150 291.478 149.713 291.989 149.198 C 292.072 149.235 292.017 149.366 291.953 149.144 C 291.858 148.81 291.626 148.388 291.129 147.692 C 290.099 146.246 288.217 144.119 285.203 140.937 C 281.761 137.291 278.251 133.033 274.803 128.32 L 276.402 127.119 C 286.077 139.669 300.61 154.039 311.056 161.029 C 328.409 172.662 353.543 183.043 381.244 190.02 C 391.216 192.534 429.063 199.804 440.639 201.43 C 472.317 205.871 526.469 214.387 536.706 216.541 C 596.502 229.094 632.357 240.318 674.916 259.791 C 736.666 288.064 787.856 326.001 829.917 374.656 C 856.67 405.625 877.742 438.805 892.35 473.007 C 911.231 517.233 920.121 565.254 918.659 615.03 C 917.652 648.69 912.502 678.466 902.511 706.758 C 898.7 717.377 894.166 727.882 888.874 738.448 C 885.171 745.838 881.401 752.763 877.477 759.325 C 875.515 762.605 873.506 765.808 871.449 768.932 C 870.421 770.494 869.376 772.043 868.319 773.571 C 867.791 774.336 867.257 775.098 866.721 775.855 C 866.185 776.612 865.106 778.108 865.106 778.108 M 221.315 152.573 C 214.427 140.088 204.363 127.102 190.427 112.531 L 191.873 111.149 C 202.617 122.386 211.222 132.805 217.452 142.116 C 218.435 143.592 219.407 145.142 220.345 146.729 C 220.813 147.522 221.279 148.332 221.733 149.147 C 222.188 149.961 223.063 151.603 223.063 151.603 M 261.278 107.149 C 256.354 98.363 251.718 88.84 247.686 79.092 L 249.534 78.328 C 251.438 82.928 253.561 87.639 255.837 92.335 C 256.976 94.683 258.148 97.018 259.35 99.333 C 259.951 100.491 260.557 101.638 261.17 102.78 C 261.477 103.351 261.784 103.919 262.094 104.485 C 262.403 105.051 263.028 106.181 263.028 106.181 M 231.993 185.346 C 231.834 183.247 231.647 181.349 231.41 179.681 L 233.383 179.358 C 233.769 181.446 233.977 183.41 233.99 185.08 C 233.99 185.14 233.99 185.27 233.99 185.27" fill="rgb(110,59,124)"/>
    <path d="M 222.19 152.09 C220.45,148.78 218.57,145.60 216.62,142.67 C210.42,133.40 201.87,123.05 191.15,111.84 C184.29,104.66 183.85,103.94 184.52,100.91 C185.79,95.11 201.12,80.81 215.50,71.99 C223.38,67.16 234.91,62.00 237.81,62.00 C240.36,62.00 244.10,67.79 248.61,78.71 C252.63,88.43 257.24,97.90 262.15,106.66 L 262.15 106.66 C264.98,111.74 267.89,116.59 270.78,121.00 C272.18,123.14 273.81,125.40 275.61,127.73 C279.04,132.42 282.51,136.63 285.93,140.25 C291.98,146.64 293.64,148.96 292.76,149.84 C292.12,150.48 291.18,151.00 290.67,151.00 C289.25,151.00 272.51,160.75 265.05,165.92 C255.30,172.69 251.44,175.77 243.38,183.25 C236.22,189.89 234.99,190.66 233.67,189.33 C233.44,189.11 233.24,188.31 233.12,187.28 C233.08,186.59 233.03,185.92 232.99,185.27 C232.99,185.21 232.99,185.14 232.99,185.08 C232.98,183.46 232.78,181.59 232.40,179.54 C232.21,178.16 231.99,176.94 231.74,175.93 C229.79,168.04 226.66,160.18 222.19,152.09 Z" fill="rgb(105,103,20)"/>
    <path d="M 631.00 838.57 C618.03,840.04 588.22,841.09 579.50,840.38 C559.42,838.76 530.77,833.07 511.00,826.79 C490.56,820.29 466.60,809.40 450.00,799.08 C395.67,765.29 348.82,712.52 322.43,655.39 C299.14,604.96 290.49,566.11 290.61,512.50 C290.69,479.08 293.52,454.16 301.06,420.50 C309.30,383.76 326.81,333.09 340.89,305.22 C350.20,286.78 371.34,274.62 400.46,270.95 C441.89,265.74 546.25,283.78 614.50,307.96 C647.17,319.53 677.12,334.60 709.50,355.76 C756.32,386.37 797.53,431.69 822.00,479.50 C836.81,508.44 845.56,536.05 851.18,571.50 C853.22,584.41 852.89,630.10 850.67,642.50 C843.70,681.35 829.46,713.75 806.92,742.09 C798.62,752.51 777.44,773.21 765.61,782.44 C724.86,814.26 679.82,833.04 631.00,838.57 ZM 701.50 457.52 C708.01,459.88 718.68,458.05 726.50,453.23 C735.71,447.54 740.00,441.21 740.00,433.29 C739.99,424.10 734.34,418.91 724.09,418.67 C709.27,418.33 691.57,434.96 693.44,447.45 C694.28,453.03 696.39,455.67 701.50,457.52 ZM 577.95 392.75 C582.06,395.52 585.90,395.60 590.91,393.04 C603.20,386.78 609.66,366.05 603.32,353.29 C600.66,347.95 596.80,345.50 591.03,345.50 C584.04,345.50 578.55,349.70 574.00,358.52 C570.75,364.82 570.50,365.97 570.50,374.40 C570.50,384.77 572.15,388.84 577.95,392.75 ZM 362.01 630.82 C368.03,633.94 375.99,633.41 385.00,629.29 C391.73,626.21 399.17,619.32 401.03,614.43 C403.33,608.38 401.62,601.29 397.16,598.37 C393.42,595.92 382.68,595.44 375.92,597.41 C368.44,599.60 360.08,604.74 357.31,608.86 C351.89,616.93 353.97,626.67 362.01,630.82 ZM 514.90 762.75 C518.99,765.46 522.18,765.56 527.51,763.14 C532.73,760.76 537.62,755.11 539.08,749.76 C542.03,738.98 539.22,724.67 532.88,718.19 C530.29,715.54 529.00,715.00 525.29,715.00 C519.78,715.00 515.95,717.52 512.49,723.42 C504.05,737.83 505.18,756.31 514.90,762.75 ZM 648.90 749.01 C656.43,752.99 665.68,750.40 668.56,743.51 C670.83,738.07 670.40,728.96 667.55,722.53 C664.39,715.37 655.91,706.35 650.95,704.87 C642.53,702.34 636.12,706.55 634.11,715.93 C631.57,727.79 638.63,743.58 648.90,749.01 ZM 502.95 360.75 C507.50,363.81 514.51,363.80 519.08,360.73 C526.19,355.93 530.65,345.09 529.72,334.83 C528.78,324.49 523.80,318.98 514.72,318.23 C507.35,317.62 502.04,320.37 498.29,326.75 C495.74,331.09 495.50,332.35 495.50,341.50 C495.50,352.85 497.01,356.74 502.95,360.75 ZM 756.88 715.62 C761.92,717.42 769.66,717.31 772.89,715.41 C774.38,714.53 776.64,712.28 777.92,710.41 C779.86,707.58 780.17,706.10 779.79,701.51 C779.41,696.89 778.70,695.26 775.35,691.31 C768.49,683.22 752.33,676.45 744.54,678.40 C740.71,679.36 735.00,685.20 735.01,688.15 C735.03,698.52 745.37,711.50 756.88,715.62 ZM 776.37 577.23 C786.33,580.80 802.19,577.22 806.66,570.40 C812.16,562.00 808.11,549.62 798.68,546.06 C794.15,544.35 784.58,544.82 777.62,547.11 C769.55,549.76 764.41,553.90 762.89,558.96 C761.88,562.35 762.01,563.39 763.98,567.46 C766.50,572.66 768.90,574.55 776.37,577.23 ZM 571.97 471.08 C575.33,474.62 576.17,475.00 580.70,475.00 C589.44,475.00 596.76,468.06 599.56,457.11 C602.12,447.05 600.39,439.56 594.14,433.61 C590.19,429.86 582.96,428.94 577.92,431.54 C573.72,433.71 572.53,435.13 569.53,441.50 C564.40,452.41 565.36,464.14 571.97,471.08 ZM 407.32 349.36 C414.16,351.78 420.33,351.44 423.90,348.43 C431.65,341.91 429.67,329.43 419.27,319.33 C411.08,311.37 403.39,309.14 395.49,312.44 C387.80,315.65 385.52,326.70 390.83,335.07 C394.57,340.96 402.14,347.53 407.32,349.36 ZM 518.98 649.75 C530.43,657.53 544.08,645.15 545.60,625.61 C546.08,619.46 545.84,617.89 543.83,614.00 C541.19,608.91 538.21,607.04 532.70,607.01 C527.78,607.00 524.23,608.89 519.60,614.02 C509.31,625.41 509.01,642.97 518.98,649.75 ZM 583.41 793.11 C592.50,798.65 602.86,791.62 604.63,778.69 C605.37,773.27 603.53,764.08 600.33,757.27 C591.86,739.24 575.76,746.28 573.34,769.07 C572.29,779.02 576.40,788.83 583.41,793.11 ZM 356.76 462.48 C378.14,467.80 388.05,451.92 372.12,437.87 C364.61,431.24 358.58,428.60 350.83,428.55 C345.07,428.51 343.81,428.84 341.49,431.00 C336.98,435.21 335.38,439.69 335.85,446.75 C336.05,449.73 342.41,456.66 347.19,459.10 C349.30,460.17 353.60,461.69 356.76,462.48 ZM 709.46 633.14 C714.18,635.37 716.92,636.00 722.00,636.00 C730.44,635.99 734.13,633.85 736.53,627.55 C739.03,621.00 737.58,616.78 730.51,610.09 C722.87,602.88 717.57,600.69 708.89,601.18 C702.75,601.52 701.70,601.90 698.63,604.87 C690.01,613.22 695.03,626.31 709.46,633.14 ZM 353.12 565.82 C375.23,568.33 390.20,555.97 379.45,544.08 C374.76,538.88 368.98,536.99 358.07,537.05 C343.96,537.14 337.49,540.90 336.32,549.67 C335.19,558.04 341.96,564.55 353.12,565.82 ZM 468.34 422.55 C471.68,424.59 473.45,425.02 477.30,424.69 C492.77,423.38 494.22,400.68 479.68,387.27 C474.38,382.39 469.63,381.11 464.31,383.13 C459.27,385.05 456.76,388.85 456.22,395.38 C455.30,406.43 460.29,417.61 468.34,422.55 ZM 572.00 703.92 C575.30,705.30 580.83,704.50 583.98,702.21 C591.67,696.58 592.28,678.96 585.14,668.51 C577.71,657.63 567.13,657.13 561.73,667.40 C558.42,673.70 558.65,686.71 562.19,693.50 C565.07,699.02 568.19,702.33 572.00,703.92 ZM 620.00 664.05 C621.92,665.08 625.40,665.93 627.72,665.96 C635.90,666.04 642.09,657.19 640.55,647.58 C638.02,631.75 623.56,620.14 612.60,625.14 C602.12,629.91 607.34,657.34 620.00,664.05 ZM 395.76 701.43 C408.00,708.08 428.96,691.97 428.99,675.88 C429.01,668.07 422.48,662.87 414.75,664.54 C395.25,668.76 382.22,694.09 395.76,701.43 ZM 750.50 508.14 C759.92,512.42 773.79,508.74 781.31,499.95 C784.64,496.06 785.00,495.08 785.00,489.85 C785.00,484.58 784.69,483.76 781.53,480.60 C775.02,474.08 763.92,474.99 752.80,482.95 C746.04,487.80 742.44,494.15 743.33,499.65 C744.06,504.14 745.53,505.87 750.50,508.14 ZM 445.27 639.52 C456.49,644.39 472.60,635.08 476.57,621.42 C477.95,616.67 477.94,615.80 476.51,612.37 C474.13,606.68 471.46,604.70 465.49,604.21 C453.30,603.20 437.99,616.48 438.00,628.07 C438.01,632.63 441.28,637.78 445.27,639.52 ZM 598.26 541.97 C601.53,543.29 603.71,543.19 609.93,541.43 C629.66,535.86 636.85,516.41 621.85,509.18 C618.17,507.41 616.83,507.24 613.14,508.07 C597.64,511.58 587.57,527.22 594.01,537.78 C595.11,539.59 597.02,541.48 598.26,541.97 ZM 641.43 596.18 C653.00,600.18 662.64,596.76 665.05,587.81 C668.82,573.83 648.48,561.06 633.38,567.91 C628.08,570.32 626.00,573.38 626.00,578.78 C626.00,586.19 631.96,592.91 641.43,596.18 ZM 645.76 415.43 C653.31,419.53 665.19,414.42 670.00,405.01 C673.63,397.88 674.45,392.46 672.61,387.65 C669.67,379.95 660.93,376.95 653.09,380.96 C639.84,387.72 635.17,409.69 645.76,415.43 ZM 676.12 529.02 C684.07,530.95 695.10,526.87 701.89,519.50 C705.57,515.51 706.00,514.52 706.00,509.99 C706.00,504.23 704.09,500.61 699.90,498.45 C691.69,494.20 675.46,499.79 669.17,509.04 C667.24,511.89 666.90,513.44 667.25,517.81 C667.74,524.00 670.68,527.70 676.12,529.02 ZM 503.45 574.59 C511.18,577.96 522.38,575.25 529.89,568.19 C534.73,563.65 535.00,563.13 535.00,558.33 C535.00,549.60 529.33,545.00 518.56,545.00 C513.20,545.00 504.71,547.99 500.98,551.19 C492.16,558.76 493.36,570.20 503.45,574.59 ZM 401.42 525.62 C414.30,531.61 430.99,525.62 430.99,515.00 C430.99,511.12 427.47,506.25 422.29,502.97 C412.90,497.02 402.78,496.20 396.32,500.88 C391.07,504.69 389.33,508.83 390.86,513.92 C392.52,519.45 395.66,522.93 401.42,525.62 ZM 483.39 517.38 C491.90,520.40 502.58,518.42 504.86,513.40 C506.71,509.34 506.22,503.63 503.72,499.90 C502.46,498.03 498.83,494.71 495.64,492.52 C490.40,488.91 489.16,488.50 482.44,488.16 C475.09,487.79 474.98,487.82 471.51,491.29 C468.62,494.18 468.00,495.54 468.00,498.95 C468.00,501.23 468.66,504.38 469.47,505.95 C471.53,509.93 478.49,515.65 483.39,517.38 ZM 715.91 763.68 C728.15,770.13 738.21,762.66 734.91,749.56 C733.49,743.93 727.80,736.46 722.26,732.95 C712.48,726.75 702.00,730.43 702.00,740.06 C702.00,749.42 707.92,759.47 715.91,763.68 ZM 791.72 649.95 C799.24,651.81 807.63,649.29 809.81,644.53 C814.13,635.04 805.11,624.21 790.86,621.77 C779.37,619.80 772.00,623.22 772.00,630.49 C772.00,639.11 780.07,647.08 791.72,649.95 ZM 445.37 752.08 C448.98,754.28 451.34,754.46 456.10,752.86 C463.56,750.36 468.97,742.30 469.75,732.49 C470.37,724.84 468.79,721.65 463.27,719.34 C460.04,717.99 459.26,718.01 455.24,719.55 C446.15,723.02 439.00,732.57 439.00,741.24 C439.00,746.16 440.86,749.34 445.37,752.08 ZM 413.78 428.11 C420.20,430.68 425.62,429.93 429.25,425.97 C437.04,417.47 427.57,402.91 412.41,400.08 C404.00,398.51 398.67,401.37 397.63,408.00 C396.49,415.30 403.45,423.97 413.78,428.11 ZM 518.41 477.11 C521.93,479.25 529.64,479.60 532.09,477.72 C537.02,473.93 537.91,463.44 533.97,455.58 C527.09,441.88 510.46,441.10 508.47,454.38 C507.20,462.84 511.63,472.98 518.41,477.11 Z" fill="rgb(206,79,52)"/>
    <path d="M 701.50 457.52 C696.39,455.67 694.28,453.03 693.44,447.45 C691.57,434.96 709.27,418.33 724.09,418.67 C734.34,418.91 739.99,424.10 740.00,433.29 C740.00,441.21 735.71,447.54 726.50,453.23 C718.68,458.05 708.01,459.88 701.50,457.52 ZM 577.95 392.75 C572.15,388.84 570.50,384.77 570.50,374.40 C570.50,365.97 570.75,364.82 574.00,358.52 C578.55,349.70 584.04,345.50 591.03,345.50 C596.80,345.50 600.66,347.95 603.32,353.29 C609.66,366.05 603.20,386.78 590.91,393.04 C585.90,395.60 582.06,395.52 577.95,392.75 ZM 362.01 630.82 C353.97,626.67 351.89,616.93 357.31,608.86 C360.08,604.74 368.44,599.60 375.92,597.41 C382.68,595.44 393.42,595.92 397.16,598.37 C401.62,601.29 403.33,608.38 401.03,614.43 C399.17,619.32 391.73,626.21 385.00,629.29 C375.99,633.41 368.03,633.94 362.01,630.82 ZM 514.90 762.75 C505.18,756.31 504.05,737.83 512.49,723.42 C515.95,717.52 519.78,715.00 525.29,715.00 C529.00,715.00 530.29,715.54 532.88,718.19 C539.22,724.67 542.03,738.98 539.08,749.76 C537.62,755.11 532.73,760.76 527.51,763.14 C522.18,765.56 518.99,765.46 514.90,762.75 ZM 648.90 749.01 C638.63,743.58 631.57,727.79 634.11,715.93 C636.12,706.55 642.53,702.34 650.95,704.87 C655.91,706.35 664.39,715.37 667.55,722.53 C670.40,728.96 670.83,738.07 668.56,743.51 C665.68,750.40 656.43,752.99 648.90,749.01 ZM 502.95 360.75 C497.01,356.74 495.50,352.85 495.50,341.50 C495.50,332.35 495.74,331.09 498.29,326.75 C502.04,320.37 507.35,317.62 514.72,318.23 C523.80,318.98 528.78,324.49 529.72,334.83 C530.65,345.09 526.19,355.93 519.08,360.73 C514.51,363.80 507.50,363.81 502.95,360.75 ZM 756.88 715.62 C745.37,711.50 735.03,698.52 735.01,688.15 C735.00,685.20 740.71,679.36 744.54,678.40 C752.33,676.45 768.49,683.22 775.35,691.31 C778.70,695.26 779.41,696.89 779.79,701.51 C780.17,706.10 779.86,707.58 777.92,710.41 C776.64,712.28 774.38,714.53 772.89,715.41 C769.66,717.31 761.92,717.42 756.88,715.62 ZM 776.37 577.23 C768.90,574.55 766.50,572.66 763.98,567.46 C762.01,563.39 761.88,562.35 762.89,558.96 C764.41,553.90 769.55,549.76 777.62,547.11 C784.58,544.82 794.15,544.35 798.68,546.06 C808.11,549.62 812.16,562.00 806.66,570.40 C802.19,577.22 786.33,580.80 776.37,577.23 ZM 571.97 471.08 C565.36,464.14 564.40,452.41 569.53,441.50 C572.53,435.13 573.72,433.71 577.92,431.54 C582.96,428.94 590.19,429.86 594.14,433.61 C600.39,439.56 602.12,447.05 599.56,457.11 C596.76,468.06 589.44,475.00 580.70,475.00 C576.17,475.00 575.33,474.62 571.97,471.08 ZM 407.32 349.36 C402.14,347.53 394.57,340.96 390.83,335.07 C385.52,326.70 387.80,315.65 395.49,312.44 C403.39,309.14 411.08,311.37 419.27,319.33 C429.67,329.43 431.65,341.91 423.90,348.43 C420.33,351.44 414.16,351.78 407.32,349.36 ZM 518.98 649.75 C509.01,642.97 509.31,625.41 519.60,614.02 C524.23,608.89 527.78,607.00 532.70,607.01 C538.21,607.04 541.19,608.91 543.83,614.00 C545.84,617.89 546.08,619.46 545.60,625.61 C544.08,645.15 530.43,657.53 518.98,649.75 ZM 583.41 793.11 C576.40,788.83 572.29,779.02 573.34,769.07 C575.76,746.28 591.86,739.24 600.33,757.27 C603.53,764.08 605.37,773.27 604.63,778.69 C602.86,791.62 592.50,798.65 583.41,793.11 ZM 356.76 462.48 C353.60,461.69 349.30,460.17 347.19,459.10 C342.41,456.66 336.05,449.73 335.85,446.75 C335.38,439.69 336.98,435.21 341.49,431.00 C343.81,428.84 345.07,428.51 350.83,428.55 C358.58,428.60 364.61,431.24 372.12,437.87 C388.05,451.92 378.14,467.80 356.76,462.48 ZM 709.46 633.14 C695.03,626.31 690.01,613.22 698.63,604.87 C701.70,601.90 702.75,601.52 708.89,601.18 C717.57,600.69 722.87,602.88 730.51,610.09 C737.58,616.78 739.03,621.00 736.53,627.55 C734.13,633.85 730.44,635.99 722.00,636.00 C716.92,636.00 714.18,635.37 709.46,633.14 ZM 353.12 565.82 C341.96,564.55 335.19,558.04 336.32,549.67 C337.49,540.90 343.96,537.14 358.07,537.05 C368.98,536.99 374.76,538.88 379.45,544.08 C390.20,555.97 375.23,568.33 353.12,565.82 ZM 468.34 422.55 C460.29,417.61 455.30,406.43 456.22,395.38 C456.76,388.85 459.27,385.05 464.31,383.13 C469.63,381.11 474.38,382.39 479.68,387.27 C494.22,400.68 492.77,423.38 477.30,424.69 C473.45,425.02 471.68,424.59 468.34,422.55 ZM 572.00 703.92 C568.19,702.33 565.07,699.02 562.19,693.50 C558.65,686.71 558.42,673.70 561.73,667.40 C567.13,657.13 577.71,657.63 585.14,668.51 C592.28,678.96 591.67,696.58 583.98,702.21 C580.83,704.50 575.30,705.30 572.00,703.92 ZM 620.00 664.05 C607.34,657.34 602.12,629.91 612.60,625.14 C623.56,620.14 638.02,631.75 640.55,647.58 C642.09,657.19 635.90,666.04 627.72,665.96 C625.40,665.93 621.92,665.08 620.00,664.05 ZM 395.76 701.43 C382.22,694.09 395.25,668.76 414.75,664.54 C422.48,662.87 429.01,668.07 428.99,675.88 C428.96,691.97 408.00,708.08 395.76,701.43 ZM 750.50 508.14 C745.53,505.87 744.06,504.14 743.33,499.65 C742.44,494.15 746.04,487.80 752.80,482.95 C763.92,474.99 775.02,474.08 781.53,480.60 C784.69,483.76 785.00,484.58 785.00,489.85 C785.00,495.08 784.64,496.06 781.31,499.95 C773.79,508.74 759.92,512.42 750.50,508.14 ZM 445.27 639.52 C441.28,637.78 438.01,632.63 438.00,628.07 C437.99,616.48 453.30,603.20 465.49,604.21 C471.46,604.70 474.13,606.68 476.51,612.37 C477.94,615.80 477.95,616.67 476.57,621.42 C472.60,635.08 456.49,644.39 445.27,639.52 ZM 598.26 541.97 C597.02,541.48 595.11,539.59 594.01,537.78 C587.57,527.22 597.64,511.58 613.14,508.07 C616.83,507.24 618.17,507.41 621.85,509.18 C636.85,516.41 629.66,535.86 609.93,541.43 C603.71,543.19 601.53,543.29 598.26,541.97 ZM 641.43 596.18 C631.96,592.91 626.00,586.19 626.00,578.78 C626.00,573.38 628.08,570.32 633.38,567.91 C648.48,561.06 668.82,573.83 665.05,587.81 C662.64,596.76 653.00,600.18 641.43,596.18 ZM 645.76 415.43 C635.17,409.69 639.84,387.72 653.09,380.96 C660.93,376.95 669.67,379.95 672.61,387.65 C674.45,392.46 673.63,397.88 670.00,405.01 C665.19,414.42 653.31,419.53 645.76,415.43 ZM 676.12 529.02 C670.68,527.70 667.74,524.00 667.25,517.81 C666.90,513.44 667.24,511.89 669.17,509.04 C675.46,499.79 691.69,494.20 699.90,498.45 C704.09,500.61 706.00,504.23 706.00,509.99 C706.00,514.52 705.57,515.51 701.89,519.50 C695.10,526.87 684.07,530.95 676.12,529.02 ZM 503.45 574.59 C493.36,570.20 492.16,558.76 500.98,551.19 C504.71,547.99 513.20,545.00 518.56,545.00 C529.33,545.00 535.00,549.60 535.00,558.33 C535.00,563.13 534.73,563.65 529.89,568.19 C522.38,575.25 511.18,577.96 503.45,574.59 ZM 401.42 525.62 C395.66,522.93 392.52,519.45 390.86,513.92 C389.33,508.83 391.07,504.69 396.32,500.88 C402.78,496.20 412.90,497.02 422.29,502.97 C427.47,506.25 430.99,511.12 430.99,515.00 C430.99,525.62 414.30,531.61 401.42,525.62 ZM 483.39 517.38 C478.49,515.65 471.53,509.93 469.47,505.95 C468.66,504.38 468.00,501.23 468.00,498.95 C468.00,495.54 468.62,494.18 471.51,491.29 C474.98,487.82 475.09,487.79 482.44,488.16 C489.16,488.50 490.40,488.91 495.64,492.52 C498.83,494.71 502.46,498.03 503.72,499.90 C506.22,503.63 506.71,509.34 504.86,513.40 C502.58,518.42 491.90,520.40 483.39,517.38 ZM 715.91 763.68 C707.92,759.47 702.00,749.42 702.00,740.06 C702.00,730.43 712.48,726.75 722.26,732.95 C727.80,736.46 733.49,743.93 734.91,749.56 C738.21,762.66 728.15,770.13 715.91,763.68 ZM 791.72 649.95 C780.07,647.08 772.00,639.11 772.00,630.49 C772.00,623.22 779.37,619.80 790.86,621.77 C805.11,624.21 814.13,635.04 809.81,644.53 C807.63,649.29 799.24,651.81 791.72,649.95 ZM 445.37 752.08 C440.86,749.34 439.00,746.16 439.00,741.24 C439.00,732.57 446.15,723.02 455.24,719.55 C459.26,718.01 460.04,717.99 463.27,719.34 C468.79,721.65 470.37,724.84 469.75,732.49 C468.97,742.30 463.56,750.36 456.10,752.86 C451.34,754.46 448.98,754.28 445.37,752.08 ZM 413.78 428.11 C403.45,423.97 396.49,415.30 397.63,408.00 C398.67,401.37 404.00,398.51 412.41,400.08 C427.57,402.91 437.04,417.47 429.25,425.97 C425.62,429.93 420.20,430.68 413.78,428.11 ZM 518.41 477.11 C511.63,472.98 507.20,462.84 508.47,454.38 C510.46,441.10 527.09,441.88 533.97,455.58 C537.91,463.44 537.02,473.93 532.09,477.72 C529.64,479.60 521.93,479.25 518.41,477.11 Z" fill="rgb(243,187,36)"/>
    <path d="M 622.49 876.52 C616.30,876.95 610.41,877.12 601.35,877.19 C597.64,877.04 592.41,876.91 586.70,876.84 C575.87,876.72 567.00,876.29 567.00,875.90 C567.00,875.51 565.20,875.43 563.00,875.73 C560.35,876.08 559.00,875.88 559.00,875.12 C559.00,874.35 557.71,874.18 555.00,874.62 C552.36,875.04 551.00,874.88 551.00,874.15 C551.00,873.46 549.88,873.27 548.00,873.65 C546.00,874.05 545.00,873.85 545.00,873.05 C545.00,872.23 544.04,872.05 542.00,872.50 C540.33,872.87 539.00,872.74 539.00,872.22 C539.00,871.70 537.88,871.49 536.50,871.76 C534.97,872.05 534.00,871.77 534.00,871.05 C534.00,870.32 533.23,870.11 532.00,870.50 C530.77,870.89 530.00,870.68 530.00,869.96 C530.00,869.20 529.10,869.01 527.50,869.41 C525.98,869.79 525.00,869.61 525.00,868.95 C525.00,868.32 524.16,868.13 523.00,868.50 C521.80,868.88 521.00,868.68 521.00,868.00 C521.00,867.32 520.20,867.12 519.00,867.50 C517.78,867.89 517.00,867.68 517.00,866.96 C517.00,866.31 516.33,866.05 515.50,866.36 C514.67,866.68 514.00,866.47 514.00,865.90 C514.00,865.32 513.12,865.14 512.00,865.50 C510.80,865.88 510.00,865.68 510.00,865.00 C510.00,864.32 509.20,864.12 508.00,864.50 C506.81,864.88 506.00,864.68 506.00,864.01 C506.00,863.39 505.59,863.14 505.08,863.45 C504.58,863.76 502.89,863.49 501.33,862.85 C499.78,862.20 498.16,861.75 497.75,861.84 C497.34,861.93 497.00,861.50 497.00,860.89 C497.00,860.28 496.33,860.05 495.50,860.36 C494.67,860.68 494.00,860.45 494.00,859.86 C494.00,859.27 493.33,859.05 492.50,859.36 C491.67,859.68 491.00,859.45 491.00,858.86 C491.00,858.27 490.33,858.05 489.50,858.36 C488.67,858.68 488.00,858.52 488.00,858.00 C488.00,857.48 487.33,857.32 486.50,857.64 C485.67,857.95 485.00,857.69 485.00,857.05 C485.00,856.41 484.55,856.16 484.00,856.50 C483.45,856.84 483.00,856.61 483.00,856.00 C483.00,855.39 482.58,855.14 482.07,855.46 C481.56,855.77 480.85,855.57 480.50,855.00 C480.15,854.43 479.44,854.23 478.93,854.54 C478.42,854.86 478.00,854.61 478.00,854.00 C478.00,853.39 477.58,853.14 477.07,853.46 C476.56,853.77 475.85,853.57 475.50,853.00 C475.15,852.43 474.44,852.23 473.93,852.54 C473.42,852.86 473.00,852.61 473.00,852.00 C473.00,851.39 472.55,851.16 472.00,851.50 C471.45,851.84 471.00,851.64 471.00,851.06 C471.00,850.48 470.66,850.09 470.25,850.21 C469.84,850.32 468.09,849.66 466.38,848.75 C464.66,847.83 462.97,847.36 462.63,847.71 C462.28,848.05 462.00,847.78 462.00,847.11 C462.00,846.43 461.55,846.16 461.00,846.50 C460.45,846.84 460.00,846.57 460.00,845.89 C460.00,845.22 459.72,844.95 459.38,845.29 C459.04,845.63 458.10,845.25 457.30,844.44 C456.50,843.64 455.43,843.24 454.92,843.55 C454.41,843.86 454.00,843.72 454.00,843.24 C454.00,842.29 446.97,838.53 445.75,838.82 C445.34,838.92 445.00,838.52 445.00,837.94 C445.00,837.36 444.55,837.16 444.00,837.50 C443.45,837.84 443.00,837.61 443.00,837.00 C443.00,836.39 442.55,836.16 442.00,836.50 C441.45,836.84 441.00,836.64 441.00,836.06 C441.00,835.48 440.33,835.00 439.50,835.00 C438.67,835.00 438.00,834.65 438.00,834.23 C438.00,833.32 430.89,829.34 430.17,829.84 C429.90,830.03 429.27,829.45 428.78,828.57 C428.28,827.68 427.45,827.22 426.94,827.54 C426.42,827.86 426.00,827.61 426.00,827.00 C426.00,826.39 425.55,826.16 424.99,826.50 C424.44,826.85 423.72,826.42 423.39,825.56 C423.06,824.70 422.16,824.00 421.39,824.00 C420.63,824.00 420.00,823.55 420.00,823.00 C420.00,822.45 419.33,822.00 418.50,822.00 C417.67,822.00 417.00,821.55 417.00,821.00 C417.00,820.45 416.57,820.00 416.05,820.00 C415.53,820.00 413.89,818.88 412.41,817.50 C410.92,816.12 409.10,815.00 408.35,815.00 C407.61,815.00 407.00,814.55 407.00,814.00 C407.00,813.45 406.58,813.00 406.06,813.00 C405.54,813.00 403.40,811.43 401.31,809.50 C399.21,807.58 397.05,806.01 396.49,806.00 C395.94,806.00 394.92,805.10 394.23,804.00 C393.55,802.90 392.51,802.00 391.92,802.00 C391.34,802.00 389.41,800.54 387.63,798.75 C385.85,796.96 382.03,793.47 379.14,791.00 C369.89,783.09 351.74,764.58 344.00,755.18 C339.88,750.17 336.16,746.06 335.75,746.04 C335.34,746.02 335.00,745.50 335.00,744.89 C335.00,743.76 327.12,733.78 325.75,733.17 C325.34,732.98 325.00,732.52 325.00,732.15 C325.00,731.47 308.95,706.53 307.16,704.42 C306.66,703.83 305.94,702.37 305.56,701.18 C305.18,699.99 304.34,698.45 303.68,697.76 C301.84,695.80 285.58,661.64 281.19,650.50 C268.05,617.13 259.76,582.88 255.78,545.50 C254.18,530.52 254.11,481.00 255.67,467.50 C257.38,452.64 261.64,428.39 265.02,414.26 C266.66,407.40 268.00,400.93 268.00,399.88 C268.00,398.83 268.45,397.19 269.00,396.24 C269.55,395.28 271.12,390.23 272.47,385.00 C275.46,373.51 282.87,349.17 284.11,346.76 C284.60,345.81 285.00,344.34 285.00,343.50 C285.00,342.66 285.45,341.19 285.99,340.24 C287.39,337.78 294.00,316.65 294.00,314.64 C294.00,313.72 294.45,312.19 295.01,311.24 C296.81,308.14 302.70,285.77 304.43,275.50 C305.35,270.00 306.56,263.45 307.10,260.94 C308.27,255.52 308.46,232.46 307.45,216.95 C306.84,207.48 306.99,205.35 308.52,201.95 C309.71,199.32 310.95,198.00 312.25,198.00 C313.31,198.00 319.21,200.43 325.34,203.39 C342.64,211.75 347.74,214.00 349.45,214.00 C350.32,214.00 351.81,214.41 352.76,214.92 C357.15,217.23 361.99,219.00 363.91,219.00 C365.08,219.00 366.81,219.39 367.76,219.88 C370.51,221.26 375.99,222.86 385.60,225.06 C400.21,228.41 403.07,228.98 413.00,230.57 C418.23,231.40 425.07,232.72 428.20,233.51 C431.34,234.29 438.99,235.43 445.20,236.02 C451.42,236.62 457.17,237.29 458.00,237.51 C458.83,237.73 468.50,239.08 479.50,240.51 C490.50,241.95 504.45,244.02 510.50,245.12 C516.55,246.21 524.12,247.49 527.32,247.95 C534.90,249.05 541.15,250.40 571.50,257.50 C579.94,259.48 588.26,261.80 593.00,263.50 C594.92,264.19 598.41,265.08 600.74,265.47 C603.08,265.86 605.24,266.58 605.55,267.09 C605.86,267.59 607.07,268.00 608.24,268.00 C610.59,268.00 617.22,270.13 618.00,271.13 C618.28,271.49 621.65,272.71 625.50,273.86 C629.35,275.01 634.28,276.86 636.46,277.97 C638.64,279.09 641.20,280.00 642.15,280.00 C643.10,280.00 644.16,280.45 644.50,281.00 C644.84,281.55 646.19,282.00 647.50,282.00 C648.81,282.00 650.17,282.47 650.53,283.05 C651.27,284.25 660.26,288.40 667.00,290.66 C669.47,291.49 673.08,293.22 675.00,294.50 C676.92,295.77 680.86,297.81 683.75,299.03 C686.64,300.25 689.00,301.61 689.00,302.05 C689.00,302.49 690.58,303.36 692.50,304.00 C694.42,304.64 696.00,305.52 696.00,305.96 C696.00,306.40 697.46,307.36 699.25,308.09 C701.04,308.82 703.09,310.00 703.82,310.71 C704.55,311.42 705.79,312.00 706.57,312.00 C707.36,312.00 708.00,312.45 708.00,313.00 C708.00,313.55 708.67,314.00 709.50,314.00 C710.33,314.00 711.00,314.40 711.00,314.89 C711.00,315.38 712.12,316.07 713.50,316.41 C714.88,316.76 716.00,317.48 716.00,318.02 C716.00,318.56 716.67,319.00 717.50,319.00 C718.33,319.00 719.00,319.45 719.00,320.00 C719.00,320.55 719.67,321.00 720.50,321.00 C721.33,321.00 722.00,321.45 722.00,322.00 C722.00,322.55 722.67,323.00 723.50,323.00 C724.33,323.00 725.01,323.34 725.01,323.75 C725.02,324.16 726.85,325.37 729.08,326.44 C731.31,327.51 733.57,329.20 734.10,330.19 C734.64,331.19 735.74,332.00 736.57,332.00 C737.39,332.00 738.32,332.67 738.64,333.50 C738.95,334.33 739.84,335.00 740.61,335.00 C741.37,335.00 742.00,335.46 742.00,336.02 C742.00,336.59 743.12,337.48 744.50,338.00 C745.88,338.52 747.00,339.41 747.00,339.98 C747.00,340.54 747.66,341.00 748.48,341.00 C749.29,341.00 750.69,342.12 751.59,343.50 C752.49,344.88 753.81,346.00 754.51,346.00 C755.21,346.00 756.05,346.67 756.36,347.50 C756.68,348.33 757.62,349.00 758.45,349.00 C759.28,349.00 760.69,350.12 761.59,351.50 C762.49,352.88 763.83,354.00 764.56,354.00 C765.30,354.00 767.10,355.58 768.57,357.50 C770.04,359.42 771.68,361.00 772.23,361.00 C772.78,361.00 776.14,364.15 779.71,368.00 C783.27,371.85 786.74,375.00 787.41,375.00 C788.93,375.00 794.23,380.43 793.46,381.21 C793.15,381.52 795.83,384.37 799.41,387.54 C803.00,390.70 805.72,393.65 805.45,394.08 C805.18,394.52 806.54,396.07 808.47,397.55 C810.40,399.02 811.75,400.59 811.48,401.03 C811.20,401.48 812.34,402.82 814.00,404.00 C815.66,405.18 816.80,406.52 816.52,406.97 C816.24,407.41 817.15,408.53 818.54,409.43 C819.93,410.34 820.81,411.50 820.50,411.99 C820.20,412.49 820.87,413.39 822.00,414.00 C823.13,414.61 823.81,415.51 823.50,416.00 C823.19,416.49 823.87,417.39 825.00,418.00 C826.13,418.61 826.81,419.51 826.50,420.00 C826.19,420.49 826.87,421.39 828.00,422.00 C829.13,422.61 829.82,423.48 829.53,423.95 C829.25,424.41 829.69,425.05 830.52,425.37 C831.34,425.68 831.90,426.30 831.76,426.74 C831.62,427.18 832.71,428.85 834.20,430.45 C835.68,432.05 836.67,433.73 836.39,434.18 C836.11,434.63 836.39,435.00 837.00,435.00 C837.61,435.00 837.84,435.45 837.50,436.01 C837.15,436.56 837.57,437.28 838.43,437.61 C839.29,437.94 839.74,438.61 839.44,439.10 C839.13,439.60 839.39,440.00 840.00,440.00 C840.61,440.00 840.84,440.45 840.50,441.01 C840.15,441.56 840.57,442.28 841.43,442.61 C842.29,442.94 842.77,443.57 842.50,444.00 C842.23,444.43 842.71,445.06 843.57,445.39 C844.43,445.72 844.85,446.44 844.50,446.99 C844.16,447.55 844.39,448.00 845.00,448.00 C845.61,448.00 845.84,448.45 845.50,449.00 C845.16,449.55 845.39,450.00 846.00,450.00 C846.61,450.00 846.84,450.45 846.50,451.01 C846.15,451.56 846.57,452.28 847.43,452.61 C848.29,452.94 848.74,453.61 848.44,454.10 C848.13,454.60 848.39,455.00 849.00,455.00 C849.61,455.00 849.84,455.45 849.50,456.00 C849.16,456.55 849.39,457.00 850.00,457.00 C850.61,457.00 850.84,457.45 850.50,458.00 C850.16,458.55 850.43,459.00 851.11,459.00 C851.78,459.00 852.07,459.26 851.75,459.58 C851.43,459.90 852.05,461.05 853.12,462.12 C854.19,463.19 854.80,464.51 854.48,465.04 C854.15,465.57 854.39,466.00 855.00,466.00 C855.61,466.00 855.84,466.45 855.50,467.00 C855.16,467.55 855.33,468.00 855.87,468.00 C856.87,468.00 858.57,471.84 858.20,473.25 C858.09,473.66 858.50,474.00 859.11,474.00 C859.72,474.00 859.95,474.67 859.64,475.50 C859.32,476.33 859.53,477.00 860.09,477.00 C860.66,477.00 860.84,477.45 860.50,478.00 C860.16,478.55 860.39,479.00 861.00,479.00 C861.61,479.00 861.84,479.45 861.50,480.00 C861.16,480.55 861.39,481.00 862.00,481.00 C862.61,481.00 862.84,481.45 862.50,482.00 C862.16,482.55 862.34,483.00 862.91,483.00 C863.47,483.00 863.68,483.67 863.36,484.50 C863.05,485.33 863.31,486.00 863.95,486.00 C864.59,486.00 864.84,486.45 864.50,487.00 C864.16,487.55 864.39,488.00 865.00,488.00 C865.61,488.00 865.84,488.45 865.50,489.00 C865.16,489.55 865.41,490.00 866.05,490.00 C866.69,490.00 866.95,490.67 866.64,491.50 C866.32,492.33 866.53,493.00 867.09,493.00 C867.66,493.00 867.84,493.45 867.50,494.00 C867.16,494.55 867.41,495.00 868.05,495.00 C868.69,495.00 868.95,495.67 868.64,496.50 C868.32,497.33 868.53,498.00 869.09,498.00 C869.66,498.00 869.84,498.45 869.50,499.00 C869.16,499.55 869.41,500.00 870.05,500.00 C870.69,500.00 870.95,500.67 870.64,501.50 C870.32,502.33 870.55,503.00 871.14,503.00 C871.73,503.00 871.95,503.67 871.64,504.50 C871.32,505.33 871.55,506.00 872.14,506.00 C872.73,506.00 872.95,506.67 872.64,507.50 C872.32,508.33 872.48,509.00 873.00,509.00 C873.52,509.00 873.68,509.67 873.36,510.50 C873.04,511.33 873.33,512.00 874.00,512.00 C874.67,512.00 874.96,512.67 874.64,513.50 C874.32,514.33 874.53,515.00 875.10,515.00 C875.68,515.00 875.86,515.88 875.50,517.00 C875.11,518.22 875.32,519.00 876.04,519.00 C876.69,519.00 876.97,519.65 876.66,520.44 C876.36,521.22 876.55,522.02 877.08,522.19 C877.61,522.37 878.15,524.09 878.27,526.01 C878.40,527.93 878.88,529.78 879.35,530.12 C879.81,530.46 880.24,532.37 880.29,534.37 C880.35,536.37 880.81,538.00 881.31,538.00 C881.81,538.00 881.93,539.12 881.59,540.50 C881.22,541.96 881.39,543.00 882.00,543.00 C882.61,543.00 882.78,544.04 882.41,545.50 C882.02,547.06 882.21,548.00 882.91,548.00 C883.61,548.00 883.80,548.94 883.41,550.50 C883.00,552.14 883.20,553.00 884.00,553.00 C884.86,553.00 885.02,554.05 884.57,556.50 C884.12,558.88 884.28,560.00 885.08,560.00 C885.85,560.00 886.04,561.03 885.65,563.00 C885.27,564.88 885.46,566.00 886.15,566.00 C886.90,566.00 887.04,567.62 886.59,571.00 C886.14,574.45 886.28,576.00 887.06,576.00 C887.86,576.00 887.99,577.79 887.50,582.00 C886.98,586.51 887.11,588.00 888.06,588.00 C889.72,588.00 888.71,634.94 887.02,635.99 C886.33,636.42 886.17,638.19 886.59,640.83 C887.05,643.73 886.90,645.00 886.08,645.00 C885.28,645.00 885.12,646.12 885.57,648.50 C886.02,650.91 885.85,652.00 885.03,652.00 C884.23,652.00 884.06,652.98 884.50,655.00 C884.93,656.97 884.77,658.00 884.01,658.00 C883.32,658.00 883.12,658.79 883.50,660.00 C883.89,661.23 883.68,662.00 882.96,662.00 C882.20,662.00 882.01,662.90 882.41,664.50 C882.79,666.02 882.61,667.00 881.95,667.00 C881.32,667.00 881.13,667.84 881.50,669.00 C881.85,670.10 881.74,671.00 881.27,671.00 C880.79,671.00 880.35,672.67 880.29,674.72 C880.23,676.76 879.72,678.59 879.15,678.78 C878.58,678.97 878.36,679.78 878.66,680.56 C878.97,681.35 878.73,682.00 878.14,682.00 C877.55,682.00 877.32,682.67 877.64,683.50 C877.96,684.33 877.67,685.00 877.00,685.00 C876.33,685.00 876.04,685.67 876.36,686.50 C876.68,687.33 876.45,688.00 875.86,688.00 C875.27,688.00 875.05,688.67 875.36,689.50 C875.68,690.33 875.52,691.00 875.00,691.00 C874.48,691.00 874.32,691.67 874.64,692.50 C874.95,693.33 874.73,694.00 874.14,694.00 C873.55,694.00 873.32,694.67 873.64,695.50 C873.95,696.33 873.69,697.00 873.05,697.00 C872.41,697.00 872.16,697.45 872.50,698.00 C872.84,698.55 872.59,699.00 871.95,699.00 C871.31,699.00 871.05,699.67 871.36,700.50 C871.68,701.33 871.60,702.00 871.18,702.00 C870.77,702.00 870.35,702.97 870.26,704.16 C870.17,705.35 869.52,706.69 868.80,707.14 C868.09,707.60 867.81,707.98 868.20,707.98 C869.28,708.01 866.93,714.00 865.84,714.00 C865.31,714.00 865.16,714.45 865.50,715.00 C865.84,715.55 865.61,716.00 865.00,716.00 C864.39,716.00 864.16,716.45 864.50,717.00 C864.84,717.55 864.61,718.00 864.00,718.00 C863.39,718.00 863.16,718.45 863.50,719.00 C863.84,719.55 863.61,720.00 863.00,720.00 C862.39,720.00 862.16,720.45 862.50,721.00 C862.84,721.55 862.61,722.00 862.00,722.00 C861.39,722.00 861.16,722.45 861.50,723.00 C861.84,723.55 861.61,724.00 861.00,724.00 C860.39,724.00 860.16,724.45 860.50,725.00 C860.84,725.55 860.57,726.00 859.89,726.00 C859.22,726.00 858.95,726.29 859.31,726.64 C860.08,727.41 856.93,733.00 855.73,733.00 C855.26,733.00 855.16,733.45 855.50,734.00 C855.84,734.55 855.61,735.00 855.00,735.00 C854.39,735.00 854.16,735.45 854.50,736.00 C854.84,736.55 854.61,737.00 854.00,737.00 C853.39,737.00 853.16,737.45 853.50,738.01 C853.85,738.56 853.43,739.28 852.57,739.61 C851.71,739.94 851.22,740.54 851.47,740.95 C851.72,741.36 850.93,742.77 849.72,744.08 C848.50,745.38 847.50,746.82 847.50,747.26 C847.50,747.71 846.83,748.50 846.00,749.02 C845.17,749.54 844.95,749.99 845.50,750.02 C846.05,750.04 845.70,750.52 844.73,751.09 C843.75,751.66 843.22,752.55 843.54,753.07 C843.86,753.59 843.43,754.28 842.57,754.61 C841.71,754.94 841.25,755.59 841.53,756.05 C841.82,756.52 841.13,757.39 840.00,758.00 C838.87,758.61 838.19,759.51 838.50,760.00 C838.81,760.49 838.13,761.39 837.00,762.00 C835.87,762.61 835.19,763.49 835.48,763.97 C835.78,764.45 834.66,765.82 833.00,767.00 C831.34,768.18 830.19,769.50 830.45,769.92 C830.71,770.34 829.59,771.66 827.97,772.86 C826.34,774.07 825.11,775.37 825.23,775.77 C825.50,776.73 803.28,799.00 802.05,799.00 C801.53,799.00 799.90,800.58 798.43,802.50 C796.96,804.42 795.14,806.00 794.39,806.00 C793.63,806.00 792.45,806.90 791.77,808.00 C791.08,809.10 790.05,810.00 789.48,810.00 C788.91,810.00 787.04,811.29 785.32,812.86 C783.60,814.43 781.47,815.99 780.60,816.32 C779.72,816.66 779.00,817.40 779.00,817.97 C779.00,818.54 778.31,819.00 777.47,819.00 C776.63,819.00 775.68,819.67 775.36,820.50 C775.05,821.33 774.38,822.00 773.89,822.00 C773.40,822.00 772.10,822.90 771.00,824.00 C769.90,825.10 768.33,826.00 767.50,826.00 C766.67,826.00 766.00,826.45 766.00,827.00 C766.00,827.55 765.33,828.00 764.50,828.00 C763.67,828.00 763.00,828.45 763.00,829.00 C763.00,829.55 762.33,830.00 761.50,830.00 C760.67,830.00 760.00,830.45 760.00,831.00 C760.00,831.55 759.53,832.00 758.96,832.00 C758.39,832.00 756.95,832.90 755.77,834.00 C754.59,835.10 752.86,836.00 751.92,836.00 C750.98,836.00 749.98,836.61 749.69,837.36 C749.41,838.10 747.84,838.98 746.21,839.31 C744.58,839.63 742.62,840.49 741.87,841.21 C739.26,843.71 734.96,846.07 727.74,848.94 L 727.32 849.11 C727.28,849.04 727.24,849.00 727.20,849.00 C727.01,849.00 723.64,850.41 719.54,852.21 C716.36,853.47 712.97,854.82 710.13,855.95 C707.86,856.85 705.53,857.73 703.15,858.60 L 703.15 858.60 C690.19,863.12 674.82,867.52 660.88,870.74 C656.94,871.60 652.97,872.40 649.00,873.13 C638.89,875.00 635.34,875.46 624.50,876.34 C623.92,876.39 623.23,876.45 622.49,876.52 ZM 631.00 838.57 C679.82,833.04 724.86,814.26 765.61,782.44 C777.44,773.21 798.62,752.51 806.92,742.09 C829.46,713.75 843.70,681.35 850.67,642.50 C852.89,630.10 853.22,584.41 851.18,571.50 C845.56,536.05 836.81,508.44 822.00,479.50 C797.53,431.69 756.32,386.37 709.50,355.76 C677.12,334.60 647.17,319.53 614.50,307.96 C546.25,283.78 441.89,265.74 400.46,270.95 C371.34,274.62 350.20,286.78 340.89,305.22 C326.81,333.09 309.30,383.76 301.06,420.50 C293.52,454.16 290.69,479.08 290.61,512.50 C290.49,566.11 299.14,604.96 322.43,655.39 C348.82,712.52 395.67,765.29 450.00,799.08 C466.60,809.40 490.56,820.29 511.00,826.79 C530.77,833.07 559.42,838.76 579.50,840.38 C588.22,841.09 618.03,840.04 631.00,838.57 Z" fill="rgb(249,222,154)"/>
    <path d="M 489.94 981.96 C479.25,982.52 468.70,982.90 466.50,982.79 C464.30,982.69 459.12,982.47 455.00,982.30 C399.87,980.08 342.34,965.09 296.00,940.87 C215.63,898.86 154.31,834.25 118.64,754.00 C71.72,648.41 71.04,518.09 116.81,404.00 C129.02,373.58 145.51,341.20 167.98,303.50 C194.04,259.79 204.64,237.35 207.48,219.83 C209.42,207.87 209.42,189.40 207.48,181.17 C203.32,163.52 191.76,146.51 172.50,129.68 C163.38,121.72 160.39,117.43 159.09,110.46 C155.82,92.92 169.87,72.63 198.45,53.62 C214.51,42.94 228.82,36.99 238.43,37.01 C253.75,37.02 260.05,43.24 271.62,69.74 C283.20,96.26 294.46,113.50 309.81,128.24 C320.28,138.30 328.94,144.19 343.33,151.05 C371.34,164.40 397.27,170.44 478.47,182.52 C549.88,193.14 593.00,202.89 637.30,218.40 C748.84,257.45 835.68,325.83 891.46,418.50 C911.34,451.52 929.21,497.70 936.36,534.51 C941.96,563.36 942.47,569.22 942.48,605.50 C942.49,636.18 942.27,640.91 940.19,654.00 C931.08,711.29 909.98,760.68 876.97,802.00 C866.47,815.15 842.81,838.89 829.00,850.15 C785.53,885.60 727.37,917.87 662.50,942.55 C598.65,966.84 545.12,979.07 489.94,981.96 ZM 448.50 956.38 C451.80,956.60 464.85,956.60 477.50,956.39 C534.49,955.44 589.06,943.70 656.00,917.97 C683.80,907.28 730.18,885.78 732.23,882.63 C732.64,882.01 732.98,881.85 732.98,882.27 C733.01,883.60 753.76,871.84 772.51,859.88 C820.78,829.09 854.86,795.85 877.50,757.50 C903.68,713.13 916.04,669.26 917.66,615.00 C919.13,565.33 910.28,517.52 891.43,473.40 C876.86,439.27 855.87,406.22 829.16,375.31 C787.18,326.73 736.16,288.92 674.50,260.70 C632.00,241.25 596.25,230.06 536.50,217.52 C526.29,215.37 472.17,206.86 440.50,202.42 C428.90,200.79 391.00,193.51 381.00,190.99 C353.23,183.99 327.94,173.54 310.50,161.86 C298.04,153.51 279.78,134.73 270.78,121.00 C262.78,108.80 254.58,93.16 248.61,78.71 C244.10,67.79 240.36,62.00 237.81,62.00 C234.91,62.00 223.38,67.16 215.50,71.99 C201.12,80.81 185.79,95.11 184.52,100.91 C183.85,103.94 184.29,104.66 191.15,111.84 C214.13,135.87 226.76,155.82 231.74,175.93 C234.00,185.09 233.96,211.25 231.65,223.74 C227.37,246.90 222.55,257.69 194.01,308.00 C157.19,372.91 142.41,403.76 129.35,443.00 C123.87,459.44 116.72,488.50 114.03,505.18 C104.40,565.05 106.67,629.91 120.19,681.00 C121.86,687.33 123.65,694.30 124.15,696.50 C125.93,704.23 134.18,727.34 139.61,739.79 C150.62,765.05 168.18,795.26 182.96,814.38 C248.87,899.66 341.88,949.40 448.50,956.38 Z" fill="rgb(12,15,12)"/>
  </g>
</svg>